<svg id="Layer_1" data-name="Layer 1" xmlns="http://www.w3.org/2000/svg" viewBox="0 0 517.28 293.89"><defs><style>.cls-1{fill:#231f20;}</style></defs><title>Thea logo Black</title><path class="cls-1" d="M245.13,266.05l.15.09.44-1C245.41,265.61,245.13,266.05,245.13,266.05Z"/><path class="cls-1" d="M244.51,263.32l0-.31-.18.28A.66.66,0,0,1,244.51,263.32Z"/><path class="cls-1" d="M245.29,266.14c.58.31,1.36.32,1.6,1.16l-1.29,2c0,.69.59.41.88.61-.31.49-.63,1-.46,1.06.19.58.75.27,1.46-.62C247.19,267.07,250.25,261.19,245.29,266.14Z"/><path class="cls-1" d="M245.76,265.05a10.6,10.6,0,0,0,1-3.72L245,264C245.16,264.46,245.25,265.07,245.76,265.05Z"/><path class="cls-1" d="M305,267.74a9.61,9.61,0,0,0,5.19.93,26.11,26.11,0,0,0,5.21-1c0-.12.06-.2.68-.22l-.68.22c0,.11,0,.26-.29.42,1.23-.45,2.54-1,3.85-1.61l1.94-.94,1.69-.87c.21-.32.39-.64.56-.94a47.83,47.83,0,0,1-9,3.73C311,268.3,307.77,268.71,305,267.74Z"/><path class="cls-1" d="M323.05,262.5l.53-.27C323,262.32,323,262.4,323.05,262.5Z"/><path class="cls-1" d="M328.28,191.37c.81-1.49,1.61-3,2.42-4.49.75-1.83.64-3.11-.06-3.93a10.67,10.67,0,0,1-.85,4.09C329.29,188.46,328.74,189.91,328.28,191.37Z"/><path class="cls-1" d="M324.24,184a4.48,4.48,0,0,0-.36.4A4,4,0,0,0,326,184a13.65,13.65,0,0,1,1.6-.46,5.31,5.31,0,0,0-1.19,0A7.07,7.07,0,0,0,324.24,184Z"/><path class="cls-1" d="M329.1,182.36a1.65,1.65,0,0,1,1.54.59,1,1,0,0,0-1.15-1,7.09,7.09,0,0,0-3.53.8c.35,0,.73-.07,1.16-.12S328.36,182.44,329.1,182.36Z"/><path class="cls-1" d="M315.47,242.42c-.18,1.18-.26,2.05-.35,2.73a17.17,17.17,0,0,1-.3,1.81c.13.44.3,1,.49,1.75,0-.14.08-.28.11-.42a45.69,45.69,0,0,1,1.49-7.13c.18-1,.38-2.06.47-3C316.67,239.61,316,241,315.47,242.42Z"/><path class="cls-1" d="M314.82,247c-1.13-3.75-.7,3.28,0,0Z"/><path class="cls-1" d="M311.8,225.58l-.66,1.51.19-.38C311.49,226.34,311.65,226,311.8,225.58Z"/><path class="cls-1" d="M334.39,196.18a17.77,17.77,0,0,1-1.88,4.57q-1.77,3.15-3.39,6.32c1.18-2.12,2.37-4.26,3.46-6.35.55-1,1.07-2.07,1.55-3.08l1.46-3.16c-.19.32-.42.63-.64.93A6,6,0,0,0,334.39,196.18Z"/><path class="cls-1" d="M314.74,265.46a15,15,0,0,0,2.21-2.25,31.18,31.18,0,0,1-6.29,2,.52.52,0,0,0,.36-.4,8.23,8.23,0,0,1-4.14-.48,4.91,4.91,0,0,1-2.72-3.25,6.57,6.57,0,0,0,2.45,2.43,6.79,6.79,0,0,0,3.62.73,22.07,22.07,0,0,0,7.35-1.95,5.73,5.73,0,0,0,.47-.92,21.78,21.78,0,0,1-7.08,1.75,5.46,5.46,0,0,1-3.5-1,5.59,5.59,0,0,1-1.86-3.2,22.67,22.67,0,0,1,0-7.71c.16-1.26.42-2.79.71-4.27s.62-3,1-4.45A52.13,52.13,0,0,1,309,236.1l-1.46,3c.44-1.13.9-2.25,1.4-3.36.24-.52.48-1,.72-1.58,1.3-3.57,2.86-7.19,4.61-11-1.31,3.07-2.62,6.2-3.84,9.41,3.09-6.12,6.93-12.13,9.83-18.22,1.38-3.35,3.68-7.48,5.41-11.33a1.64,1.64,0,0,0-.05-.32l.53-.79c.17-.53.33-1.11.42-1.47,1.87-3.84,4-8.35,5.22-11l.27-.79a21.72,21.72,0,0,1,1.46-2.76c-.62,1.22-1.18,2.37-1.73,3.55l-.87,2.65c-.15.44-.32.91-.56,1.49l-.67,1.64a42.66,42.66,0,0,1-3.54,6.72,4.43,4.43,0,0,1-.38.88l-.1.23c.12,1.83-1.93,5.19-3.69,8.12.61-.33-.48,1.13-.17,1.33-1.25,3.5-2.49,7-3.52,9.88-1.76,4.54-4.35,8.58-5.15,12.79-.19,1.22-1.3,3.25-1.76,4.91-.11.73-.23,1.49-.35,2.28.32-.74.67-1.49,1.05-2.23a10.14,10.14,0,0,1-.45,1.93c-.16.63-.31,1.3-.48,2.13s-.36,1.75-.51,2.65a23.4,23.4,0,0,0-.51,4.39c.05.68.21,1,.39,1s.08-.34.14-.92.39-2.5.86-4.49c.22-1,.52-2.16.79-3.16s.61-2.07,1-3.16a65.66,65.66,0,0,1,2.74-6.39c1.25-1.29,1.66,2.59,1.37,3.66,0,.13,0,.28-.05.42.57-1.13,1.18-2.27,1.78-3.4.77-1.91,1.61-3.85,2.5-5.79,1.42-3.13,3-6.29,4.56-9.47l-1,2.7c-.14.44-.3.89-.46,1.34a94,94,0,0,1-5.57,11.22c-.86,2.17-1.65,4.32-2.25,6.37l0,.16a80,80,0,0,1,3.85-7.61c2.06-5,4.55-10.08,7.16-15.23l-1,2.7c-1.28,4-3.73,8.21-6.12,12.53-1,2.36-1.87,4.7-2.56,6.93-.35,1.11-.65,2.2-.88,3.22s-.35,1.87-.57,3.14c.12-.38.23-.77.35-1.16s.2-.64.31-1q.33-1,.75-2.07c.55-1.44,1.18-3,1.77-4.4,2.32-5.91,5.18-11.82,8.05-17.61l8.84-17.44a29.23,29.23,0,0,1,1.7-4.59l.31-.64.5-1,1.08-2.08,2.16-4.2a53,53,0,0,0,3.37-8c-.68.88.11-1.51-.12-1.44a43.43,43.43,0,0,0,.38-6.53,10.62,10.62,0,0,0-.6-3.37,4.94,4.94,0,0,0-1.05-1.64,10,10,0,0,0-1.47-1.07c-.57-.39-.44-.5-1-.93a17.9,17.9,0,0,0-2.4-.44,43.07,43.07,0,0,0-5.48-.22,36.08,36.08,0,0,0-5.86.73,44.27,44.27,0,0,0-12.43,4.63c-1.25.75-1.94,1.15-2.82,1.72l-2.56,1.61c.79-.57,1.63-1.11,2.49-1.64s1.59-1,2.89-1.69a59.35,59.35,0,0,1,8-3.9,36,36,0,0,1,8.24-2.1,33,33,0,0,0-9.94,2.54,46,46,0,0,0-4.8,2.32c-.78.43-1.56.84-2.31,1.31l-.94.6-.83.54a122.51,122.51,0,0,0-12.3,9.53,145.49,145.49,0,0,0-18.86,20.92c-2.29,2.95-4.75,5.71-7.22,8.46.12-.31.24-.63.34-.93a120.66,120.66,0,0,0-8.62,10.7l-.74,1.05-8.49,12c7.78-17.58,16.48-34.67,25.31-51.66q3.3-6.39,6.71-12.73c2.23-4.25,4.54-8.46,6.84-12.67s4.62-8.4,7-12.58l3.54-6.26c1.2-2.07,2.47-4,3.7-6l.4-.79a114.6,114.6,0,0,1,6.68-12c2.28-3.57,4.65-7.42,7.35-11.15l1,.1c-.71,1-1.4,1.88-2,2.77-1.24,2.23-2.62,4.61-4.05,7,1.75-2.37,3.45-4.8,5.28-7.09.32-.39-1.27,2.06-3.74,6l-4.34,6.73c-1.53,2.53-3.06,5.32-4.65,8.07s-3.21,5.45-4.6,8.17L304,148.74c-2.21,4.2-3.53,6.89-3.1,6.55a3.5,3.5,0,0,0,.27-.43c.16-.29.41-.71.73-1.26.63-1.1,1.55-2.71,2.71-4.72s2.5-4.44,4.05-7.18,3.35-5.58,5.22-8.74a261.19,261.19,0,0,1,15.28-22.76l.86.11,3.85.49c-.2.24-.39.49-.6.72-1.75,2.19-3.69,4.21-5.29,6.52-2.3,3.75-4.17,6.74-5.71,9.08s-2.53,4.22-3.38,5.48c-.47,1.29-1.13,3-2.06,5.23l.87-1.31,3.53-5.85c1.14-2,2.55-3.77,3.8-5.69,2.59-3.75,5-7.68,7.93-11.22.67-1,1.31-1.89,1.94-2.82l.19,0-2.13,2.8-.34.49c.91-1.08,1.82-2.17,2.72-3.26l1.54.2c-5.35,6.79-10.33,13.85-14.95,21.05,1.51-2.4,3.41-4.61,5.15-7s3.54-4.77,5.38-7.09l5.66-6.73.06-.07,11.46,1.48a277.93,277.93,0,0,0,42,1.71,177.06,177.06,0,0,0,43.3-6.94c1.08-.49,2.19-1,3.32-1.47l3.4-1.68c2.31-1.13,4.69-2.19,7.08-3.55l-2.57,1-2.66.86c-1.79.57-3.63,1.13-5.51,1.66,8.21-4.25,17.84-9.36,27.32-16.28a134.64,134.64,0,0,0,13.87-11.56l.85-.78,1-1,1.92-2c1.3-1.4,2.69-3,3.9-4.58A54.29,54.29,0,0,0,493,58.12c3.15-7.14,4.54-15,2.74-22.36a27.93,27.93,0,0,0-12.18-17.11A37.63,37.63,0,0,0,464.78,13c-1.57-.08-3.13,0-4.64,0s-3,.25-4.44.41l-3.83.7-3.34.85c-2.44.7-4.84,1.46-7.19,2.36s-4.41,1.75-6.66,2.61c-4.41,1.78-8.9,3.53-13.39,5.47s-9,3.93-13.58,6c-4.5,2.23-9.09,4.33-13.55,6.85a212.49,212.49,0,0,0-50.63,37.58c-1.4,1.57-2.77,3.19-4.14,4.81h-.13q1.62-1.89,3.3-3.76c-1.18,1.22-2.32,2.49-3.47,3.74l-2.5-.27A209.48,209.48,0,0,1,370,50.55,246.25,246.25,0,0,1,412,27c7.11-3.21,14.2-6.05,21.13-8.79,3.48-1.34,6.76-2.72,10.72-4.05a76.42,76.42,0,0,1,12.29-2.93c1.46-.13,3.1-.33,4.66-.39A62.68,62.68,0,0,0,448,12.23c-1.86.43-3.73.85-5.52,1.39l-2.7.82c-.89.27-1.62.54-2.44.81-3.2,1.09-6.39,2.16-9.6,3.34s-6.38,2.34-9.57,3.62a228.4,228.4,0,0,0-36.94,18.33l6.17-3.9,6.33-3.58c2.1-1.24,4.25-2.34,6.41-3.42s4.3-2.26,6.49-3.27c8.72-4.18,17.6-7.85,26.42-11.31l3.9-1.58,2-.79,2.21-.79a72.86,72.86,0,0,1,9.16-2.66,73.48,73.48,0,0,0-9.36,2.26l-2.26.69-2,.68-3.94,1.36C427.5,16.07,422.23,18,417,20.13a249.76,249.76,0,0,0-30.73,14.79,206.38,206.38,0,0,0-43.77,35.49c-2.94,3.14-5.74,6.37-8.46,9.68a250.28,250.28,0,0,0-56,1c1.39-6.68,3.07-14.69,3.5-16.77,0-.25.08-.46.11-.66-.33,1.62-1,4.65-2.09,8.28-.8,2.86-1.81,6.08-2.87,9.32a253.39,253.39,0,0,0-35.16,7.38,364.36,364.36,0,0,0-35.69,11.64c.92-.58,1.82-1.15,2.67-1.72l-5.44,2.08L197.76,103c-1.75.79-3.53,1.54-5.26,2.39L187.35,108c-3.47,1.7-6.79,3.71-10.17,5.67l-2.53,1.48-2.57,1.69a61.82,61.82,0,0,0-5,3.66c-1.21.88-2.32,1.93-3.47,2.94a67,67,0,0,0-15.38,20,56.91,56.91,0,0,0-6,23.86,42.64,42.64,0,0,0,6.1,23.88,27.8,27.8,0,0,0,9,9,24.08,24.08,0,0,0,12.43,3.43h1.61l1.59-.19,1.58-.2c.51-.1,1-.24,1.51-.37l3-.76a17.39,17.39,0,0,0,3-.9l2.88-1.12a19.74,19.74,0,0,0,2.83-1.24c1.81-1,3.72-1.77,5.43-2.93,5.11-3.42-3.73,1.63,4.71-4.05-.45.3-.89.61-1.3.84a48.84,48.84,0,0,1-14.85,7.47c-.7.11-.37-.14.65-.61s2.77-1.07,4.72-2.13a60,60,0,0,0,6.45-3.67c1.09-.73,2.23-1.37,3.24-2.16l2.89-2.25a9.66,9.66,0,0,1,.81-.83,7.24,7.24,0,0,0,.67-.53l1.56-1.29.68-.64c-.35.14-.09-.22.36-.72a79.81,79.81,0,0,1-8.44,6.2c1.3-1,2.54-2.06,4.06-3.19s3.12-2.64,5.22-4.36h0a3.4,3.4,0,0,0,.29-.26l2.59-2.42h0l-2.92,2.48c-.87.68-1.65,1.22-2.3,1.68-1.3.92-2.12,1.49-2.59,1.74-1,.44-.33-.05,1-1.27a119.2,119.2,0,0,0,11.16-10.6c-1.46,1.39-3.28,3.07-5.34,4.83l-.14-.14a62.85,62.85,0,0,1-19.5,11.22,27.7,27.7,0,0,1-4.7,1.32l-2.36.47-1.17.23-1.2.07-2.4.16a12.07,12.07,0,0,1-2.31.05,15.1,15.1,0,0,1-4-.75,8.79,8.79,0,0,1-1.43-.63l-1-.72c-.33-.2-.63-.54-1-.87s-.89-.79-1.55-1.31c-3.34-3-5.35-8.2-5.7-13.86a36.68,36.68,0,0,1,3.25-17.07,42.7,42.7,0,0,1,4.65-8.22,51.09,51.09,0,0,1,6.37-7,52.56,52.56,0,0,1,7.76-5.79c1.33-.91,2.86-1.63,4.27-2.45s3.42-1.68,5.11-2.52a222.06,222.06,0,0,1,43-15.78c-.21,0-.32-.08-.32-.16,3.59-.87,7.15-1.8,10.81-2.46l5.46-1.11L254,112c3.65-.63,6.85-1.19,10.05-1.82.48-.11,1-.2,1.46-.29-.15.4-.29.78-.44,1.2a5,5,0,0,0-.36.8l-.9,2.19c-.75,1.85-1.79,4.42-2.95,7.26-2.33,5.69-5.16,12.47-7.1,17l-1,2.66c-.73,1.9-2,4.89-4,9.33-1.32,3-1.11,3.06-.91,3.14l-.41-.17c-1,3.11-4,8.84-5.31,11.81l-.44-.2a81.67,81.67,0,0,1-4.1,8.73l-4.44,8.52-.47-.25c-1.53,2.81-3,5.6-3.29,5.47l-.48-.27c-1.85,2.59-4.55,8.34-5,8l.49.29a190.3,190.3,0,0,1-18.08,25.22c-8,9.14-17.35,18.79-27.91,26.35l-4,2.66c-.68.43-1.33.94-2,1.32l-2.09,1.14c-1.4.74-2.78,1.57-4.19,2.29l-4.31,1.87c-.73.31-1.41.66-2.18.95l-2.37.8c-1.58.53-3.15,1.12-4.72,1.62-3.18.82-6.31,1.88-9.45,2.42-2.77.54-5.53,1.65-2.63,1.76-1.41.31-2.84.35-4.26.55s-2.84.41-4.26.42a11.92,11.92,0,0,0-4.26.64c-.72.3-1.44.51-4.3.41a80.07,80.07,0,0,1-8.62-.38c-1.43-.13-2.85-.4-4.28-.59l-2.14-.32-2.12-.48a79.27,79.27,0,0,1-16.6-5.45A89.47,89.47,0,0,1,74,249.76a104,104,0,0,1-14-11.7,126.63,126.63,0,0,1-20.14-25.88,9.62,9.62,0,0,1,0-1.93c0-.31,0-.64,0-1a16.63,16.63,0,0,0,0-2.89l-.09-1.16-.08-.7c.49.92,1,1.23,1.45.65.7-1,1.44-4.25,1.51-6.9.39-7.31.81-12.68.07-18.23-.57-4.09-1.58-7.92-1.72-12.36-1.09-4.28-2.47-8.86-3.8-14-1.08-4.31-2.83-8.18-3.49-12.45,0-.12-.09-.15-.14-.11a.47.47,0,0,0-.06.34c.33,6.51,1.37,12.77,1.59,18.73,0,.68,0,1.35,0,2a.88.88,0,0,0-.07.23c-.11.58-.17,1.17-.27,1.75l0-.62a.86.86,0,0,0-.6-.87.62.62,0,0,0-.4.11q-.48-2.38-1.15-4.84a3.87,3.87,0,0,0-.22-1.33c.37-1.77.59-3.57,1-5.38l.12-.44A2.28,2.28,0,0,0,33,149.2a1,1,0,0,0-.29-.27c-.13-4.43,0-9.08.09-13.54,0-.23,0-.37-.11-.36a.77.77,0,0,0,.06-.28A13.69,13.69,0,0,1,32.9,133c0-.13,0-.22-.06-.17a.53.53,0,0,0-.1.3c-.07.63-.13,1.25-.14,1.84a.2.2,0,0,0,0,.13,1.08,1.08,0,0,0-.15.47c-.35,2.2-.46,4.42-.64,6.58s-.16,4.36-.33,6.5a51.38,51.38,0,0,1-.12-6.83,48.7,48.7,0,0,1,.9-8.35c0-.15,0-.26,0-.26s-.1.11-.13.25a41.76,41.76,0,0,0-1.06,8.46c0,2.83-.07,5.62-.38,8.5l-.11.66a45.73,45.73,0,0,1-1.08-5.82A124,124,0,0,1,33,129.12c.09-.25.12-.47.08-.49s-.16.18-.25.43c-.61,1.42-1.12,2.89-1.71,4.32s-1.19,2.87-1.71,4.34l.07-.67.16-.64c.65-1.9,1.41-3.76,2.1-5.65.27-.7.41-1.32.3-1.42s-.51.37-.84,1l.13-.33c0-.11.05-.2,0-.18a.56.56,0,0,0-.18.26l-.44,1.18a73.37,73.37,0,0,0-4.59,10.65,47.75,47.75,0,0,1,4.65-11.74c0,.08,0,.11.08,0a1.05,1.05,0,0,0,.17-.31c0-.1,0-.1-.08,0h0c1.12-2,2.41-3.89,3.68-5.78l.14-.2-.16.22a49.56,49.56,0,0,0-9.31,20.38l-.36,1.16h0a1.92,1.92,0,0,0-1.06.48c.34-1.28.75-2.53,1.13-3.79s.8-2.51,1.29-3.72c.95-2,1.86-4,3-5.87.15-.28.21-.54.12-.58s-.28.15-.45.43l-.82,1.4c.09-.44.06-.76-.11-.87s-.47,0-.82.28c.58-1.05,1.18-2.08,1.83-3.07a22.64,22.64,0,0,1,2.07-2.86c.09-.11.13-.17.07-.14a1.45,1.45,0,0,0-.26.23,36.57,36.57,0,0,0-3.17,4,37.56,37.56,0,0,0-2.63,4.33l-2.55,3.32c-.79,1.16-1.58,2.37-2.32,3.68a32.33,32.33,0,0,0-3.62,11.94c-.49,1.41-.89,2.85-1.26,4.29a.94.94,0,0,0-.65-.42h-.2l1-3.86a92.33,92.33,0,0,1,6.32-16.59c2.75-5,6.05-9.7,11.14-13.19a10.58,10.58,0,0,0,1-.73c-.1,0-.76.41-1.46.84a30.29,30.29,0,0,0-6.76,5.35A31.65,31.65,0,0,0,23,133.7c-.77,1.13-1.57,2.27-2.28,3.49a53,53,0,0,0-4.6,10.67c-.76,2.26-1.33,4.54-2,6.77s-1.18,4.54-1.51,7a6.45,6.45,0,0,0-.31,1.42l-.12,1.45c-.22,1.9-.44,3.79-.67,5.69s-.32,3.8-.33,5.72a95.79,95.79,0,0,1-.8-13.58c0-.32-.13-.55-.32-.54a.68.68,0,0,0-.42.64,66.79,66.79,0,0,0,.89,19c-1.49,1.94-1.66,5.9-.52,9.16a11.34,11.34,0,0,0,1.73,3.26c-.16-.52-.32-1-.44-1.56a14.3,14.3,0,0,0,2.6,3.71c0,.11.06.23.1.34.63,3.08,2.71,6.19,4.6,8.92l.31-.4c.27.54.21,1,.61,1.52l-.06-.59,0,0a6.68,6.68,0,0,0,1.37,2A13.86,13.86,0,0,0,25.27,213c.07.05.16.1.23.16a3.4,3.4,0,0,0,1,1c.2.16.44.33.56.45a12.51,12.51,0,0,0,2.06,1.66,21.06,21.06,0,0,0,2.93,1.35c-.39-.17-.8-.37-1.17-.57a10,10,0,0,0,2,.71l-.18-.15a12.74,12.74,0,0,0,2.91.74,139,139,0,0,0,9.08,16c.89,1.43,1.78,2.87,2.42,4s1.08,1.85.93,2a176.39,176.39,0,0,0,28.71,29.13,27.17,27.17,0,0,0,4,2.77A72.57,72.57,0,0,0,88,276a91.63,91.63,0,0,0,8.72,3.62l.79.26L95.18,279c.92.38,1.86.7,2.8,1l0,0h0a97.38,97.38,0,0,0,41.19,5.67l2.82-.19,2.8-.37c1.86-.26,3.73-.49,5.58-.79l5.51-1.15,2.75-.6,2.7-.77,5.39-1.54c1.81-.62,3.64-1.36,5.46-2.05a82.21,82.21,0,0,0,10.55-4.91,49.1,49.1,0,0,0,5-2.93l4.85-3.11,4.55-3.45c1.49-1.17,3.06-2.26,4.42-3.55,2.78-2.53,5.71-4.92,8.23-7.64l3.88-4c1.29-1.32,2.43-2.75,3.65-4.12a225.72,225.72,0,0,0,24.42-34.74c1.95-2.84,5.35-8.75,7.1-11.71A266.84,266.84,0,0,0,265,157a382.1,382.1,0,0,0,10.34-42.67c.36-2,.66-3.89.93-5.72a290.22,290.22,0,0,1,35.27,0l2.45.15c-1.39,2.34-2.76,4.7-4.07,7.07-2.19,3.61-4,7.38-5.92,11.07q5-9.24,10.78-18.09l2,.14A266.52,266.52,0,0,0,302,133.77c-11.69,23.65-22.81,46.27-33.28,70.95-2.38,5.72-4.75,11.44-6.18,15.33l-2.79,8c3.05-7.57,6.36-15.28,9.18-21.89-.36.87-.24.8-.2.83,4.63-10.22,7.85-17.6,12.92-28.06-6.53,15.16-15.32,33.26-22.89,52l-.92,2.65c8-19.33,17.2-38.3,26.53-57.11q7.06-14.07,14.21-28,6.25-12.34,12.9-24.16c-1.06,2-2.05,4-3.12,6-1.57,3.08-3.25,6.05-4.73,9.19-14.8,29.47-33,63.43-46.53,96.34a5.86,5.86,0,0,0-.17.66l-1.94,2.74c5.54-16.77,12.29-32.72,17.48-46.27-4.58,10.78-7.48,18.3-11.47,28.86a10.44,10.44,0,0,1-.72,1.93c.25-.68.48-1.3.72-1.93,0,0-.12,0,.19-.84-2,5.62-4.3,12-6.38,18.51l-4.91,6.94c-1.4,2-2.64,4.07-4,6.06-.89,1.6,1.69-.24.13,2.35a3.12,3.12,0,0,1,.4-.27c1.12-2,2-3.89,2.69-4.19,1.08-.24-1.1,3.58-2,6.32a1.58,1.58,0,0,1,.14.53l-.48.71,0,.32c.26.06.39.31.48.63l1.78-2.61a10.51,10.51,0,0,1-1,3.71h0l-.06.1c-.15.3-.29.63-.45,1h0c5-4.91,1.91.94,2.14,4.24a13.48,13.48,0,0,0,1.2-1.79l.44.32a84.86,84.86,0,0,1,9.35-10c.83-.85,1.4-.42,2.43-1.86,2.75-3.83,5.7-7.52,8.4-11.39a281.83,281.83,0,0,1,17.44-23.41c-.07,0-.12,0-.14,0,1.49-1.76,3-3.52,4.57-5.26s2.36-3.36,4-5a192.93,192.93,0,0,1,16.38-15.4c1.4-1.12,2.8-2.22,4.21-3.24.71-.52,1.41-1,2.12-1.48.35-.24.71-.5,1.06-.71l.53-.33a1.11,1.11,0,0,0,.15-.12,11,11,0,0,1,2.61-1.52,6.46,6.46,0,0,1,1.72-1.29,3.86,3.86,0,0,1-.9,0,8.27,8.27,0,0,1,3.52-1.83,7.41,7.41,0,0,1,2.31-.23,1.27,1.27,0,0,1,1,.34,1.47,1.47,0,0,1,.38.84,9.29,9.29,0,0,1-.71,3.85c-.46,1.35-1,2.73-1.6,4.1-.29.71-.57,1.4-.83,2.06-.43,1-.84,1.94-1.22,2.84-4.33,10.19-10.61,20.75-16.61,32.06-2.38,5.89-4.78,12.09-6,18.65.85-6.05,3.07-12.06,5.78-18.27-1.58,3-3.13,6.11-4.51,9.34-.7,1.62-1.34,3.27-1.9,5s-1.05,3.36-1.5,5.08c-.18,1-.37,2-.56,3s-.35,2.16-.47,3.23a29.8,29.8,0,0,0-.15,6.32,10.28,10.28,0,0,0,2.12,5.68,7,7,0,0,0,5.56,2.09A12,12,0,0,0,314.74,265.46Zm20.84-73.4a52.76,52.76,0,0,0,2.31-5.9c.37-1.12,1.39-2.89,1.86-4a76.1,76.1,0,0,1-4.16,12.37l-1.13,2.69-1.11,2.5c-.78,1.66-1.61,3.34-2.48,5-1.74,3.35-3.61,6.71-5.41,10l-.8,1.82a21.19,21.19,0,0,1-1.92,3.28l-.24.48.11-.29c-1,1.43-2.11,2.74-3.23,4.51l-.14.61-.46-.28c1.56-5.34,5.73-10.54,8.41-16,1.74-3.55,3.68-7.16,5.53-10.84l1.36-2.77C334.59,194.18,335.11,193.1,335.58,192.06Zm-166.67,6c-.77,0-1.58-.21-2.39-.34a7,7,0,0,1-.75-.34,21,21,0,0,0,2.63.48c.88.1,1.78.06,2.65.12Zm-4.9-2.22a19.24,19.24,0,0,0,9.28,1.51s0,.07-.12.11a19.48,19.48,0,0,1-10.55-1.92,20.21,20.21,0,0,1-7.68-7.27c-3.92-6.12-4.9-13.73-4.29-19.88-.39,7.55,1.43,15.59,5.68,21.22A19.78,19.78,0,0,0,164,195.88Zm15.73-62.42a.43.43,0,0,0-.09-.1l.29-.05Zm-139.92,81a4.94,4.94,0,0,0-.68-.23,4.37,4.37,0,0,1,.67.17Zm-2,2.72h0l-.23-.06-.21-.09A2,2,0,0,1,37,217l-.17-.08a1.74,1.74,0,0,1-.1-.19c.25.14.51.25.77.37l.1,0h-.07Zm-4.61-2.5c-.06,0,.15,0,.06-.16l-.15-.17.63.48.36.15c.08.17.15.34.22.51A11.41,11.41,0,0,1,33.19,214.7Zm-5.76-6.65c.11.1.3.33.34.12a30.5,30.5,0,0,0,2.41,2.74,9.7,9.7,0,0,0,1.05.89,5.6,5.6,0,0,0,.78,1.48c-.79-.78-1.76-1.63-2.52-2.53a38.15,38.15,0,0,1-2.39-3Zm8.21,8.24-.3-.17c-.11-.24-.24-.48-.35-.72l.29.12,0,.07a.53.53,0,0,0-.15-.05c-.13,0-.08.07.12.2l.15.1C35.5,216,35.57,216.15,35.64,216.29Zm0-3h0l.11.32Zm-12.51-4.93a5.08,5.08,0,0,0-.27-.43c-.06-.25-.11-.5-.16-.75l.07.08c.16.28.35.54.53.81l0-.19a34.83,34.83,0,0,0,2.51,2.77,17.79,17.79,0,0,0,4.29,3.72c-.55-.23-1.1-.44-1.62-.64A21.25,21.25,0,0,1,26,211.49C25,210.51,24.11,209.46,23.14,208.36ZM43.54,231a121.61,121.61,0,0,1-7.11-12.6l.26,0c.14.29.28.59.43.87.94,1.86,1.92,3.7,3,5.58.55.94,1.09,1.92,1.7,2.91s1.28,2,2,3Zm58.87,50.44.34.1Zm9-8.52c-1.29-.12-3-.35-5-.65s-4.18-1-6.56-1.61a87.8,87.8,0,0,1-14.81-6c-2.46-1.14-4.7-2.59-6.85-3.82s-4-2.63-5.67-3.71l-.54.78c1.78,1.22,3.53,2.48,5.34,3.66l-.25.42a108.6,108.6,0,0,1-21.08-17.86,124,124,0,0,1-11.95-15.28c1,1.49,1.9,2.89,2.64,3.86-.13.1-.27.21,1.67,2.86a117.24,117.24,0,0,1-10.75-17.07,20.18,20.18,0,0,0,2.47,0c1.76-.09,1.11,0-1-.42l-.28-.07c1.13.17,2.11.29,2.67.32.3,0,.05,0,0,0s-.69-.18-1.72-.53l-.68-.21a17.16,17.16,0,0,1-2.56-1.21,1.51,1.51,0,0,1-.11-.22,1.94,1.94,0,0,0,.34.16l.15.14c.78.43.8.42,1.64.82v0l.67.26,1.16.42L40,217.7l.34.13-.07-.05.14.08.17,0a2.73,2.73,0,0,0,.66.26l.54.12.16,0,.3,0h0l-.11,0-.23-.06a6.82,6.82,0,0,1-.65-.21l.12,0c.12,0,.09,0-.4-.3l-.75-.47c-.53-.34-.55-.33-1.15-.75l-.34-.27c-.14-.15-.16-.19-.26-.31h0l.33.21c.3.17.37.16.19,0,.41.09.33-.14.13-.58.14.05.23.05.27,0a2.69,2.69,0,0,0,1,.43l.12,0a7.72,7.72,0,0,0-.46-1.3l-.07-.2.19.07c0-.06,0-.16,0-.23a132.74,132.74,0,0,0,12.88,18A195.38,195.38,0,0,0,67.9,247.64c1.13,1.06,2.16,2.25,3.94,3.74.89.75,1.9,1.67,3.22,2.64,1,.7,2.12,1.5,3.44,2.36-2.13-1.35-4.26-2.69-6.26-4.24l-.41.56a97.5,97.5,0,0,0,17.1,10.66,98.66,98.66,0,0,0,18.78,6.79l-.19.84c2,.37,4,.82,6.08,1.14C115.08,272.77,114.05,273.18,111.46,272.9ZM340.51,103.27l1.79-1.87h.56l-1.63,1.9Zm-8.83-2.66,1.12.1-.33.43c-.41.54-.84,1.12-1.28,1.72l-1.13-.07,1.36-1.85Zm24.7-13.55,2.73-2.51,1,.06c-1,.82-2,1.66-2.92,2.51Zm2.33.17c.92-.85,1.85-1.7,2.79-2.53l.66,0h.24c-1,.82-2,1.68-3,2.53Zm4.93-4.41c3-2.57,6-5.08,9.12-7.54a192,192,0,0,1,22.35-14.55c-2.49,1.62-5,3.12-7.38,4.93-6.86,5.15-14.81,10.74-23,17.21ZM382.09,67c-1.14.84-2.27,1.81-3.42,2.74-5.07,4-10.64,8.25-16.34,13l-1.17-.09,1.39-1.27a200.3,200.3,0,0,1,26.79-19.6C386.89,63.5,384.49,65.3,382.09,67Zm-37.82,19-.38,0c.66-.75,1.3-1.5,1.94-2.24l.48,0Zm-5.12-.38-.64,0c.66-.72,1.34-1.43,2-2.14l.64,0C340.49,84.24,339.82,85,339.15,85.68ZM338,85.61l-.28,0,1.82-2.13h.3C339.21,84.18,338.6,84.89,338,85.61Zm-18.3,23.62c-.45.6-.89,1.2-1.3,1.83.38-.63.81-1.23,1.24-1.83Zm5.22-6.72c.11-.17.22-.34.34-.51l-.39.5h-.32l1-1.39c.2-.26.39-.53.59-.8h.24c-.38.57-.76,1.14-1.15,1.69l1.29-1.68h.12l-1.51,2.2Zm-1.93-.09h-.31l1.47-2.16h.32C324,101,323.47,101.69,323,102.42Zm13.41-1.33q1.44.12,2.79.18l2.07.09c-.41.71-.81,1.36-1.19,1.9-1.84-.08-3.58-.13-5.3-.21C335.3,102.39,335.85,101.73,336.39,101.09Zm5.81,2.26a3.07,3.07,0,0,0,.25-.26c.54-.55,1.07-1.1,1.6-1.66H345c-.56.64-1.12,1.3-1.68,2Zm61.05-2a61.15,61.15,0,0,1-10.95,2.24c-2.09.29-4.28.4-6.56.57s-4.63.3-7,.3c-9.61.28-19.87-.45-29.16-.7-1.48-.11-3-.19-4.46-.26l1.78-2c2.41,0,4.71.13,7,.34a295.1,295.1,0,0,0,30.29.89,123.79,123.79,0,0,0,27.22-3.48C409.43,100.42,405.29,100.69,403.25,101.33ZM421.53,83.8c-8.14,2.53-21,4.26-35.07,4.4-8.27.13-16.92-.25-25.28-.8l2.9-2.57,5.12.24a169.63,169.63,0,0,0,30.56-.44,116,116,0,0,0,29.75-7.14C433.2,78.77,429.7,81.28,421.53,83.8Zm45.4-30.16a33.4,33.4,0,0,1-5.1,4.63,89.41,89.41,0,0,1-7.46,5.43c-1.45,1-1.7.56-3.4,1.2-6.2,5.92-15.25,10.76-25.71,13.76s-22.2,4.37-33.92,4.7c-3,.14-6,.17-9,.22s-6.09-.17-9.17-.3l9,.16,9.13-.08a130.56,130.56,0,0,0,38.27-7.85,140.85,140.85,0,0,1-22.52,5.56,191.84,191.84,0,0,1-23.43,2.05c-3.94.12-7.91,0-11.88,0-1.85-.09-3.7-.14-5.55-.21a217.62,217.62,0,0,1,24.63-17.47,235,235,0,0,1,26.76-13.35c9.25-3.94,18.85-7.29,28.9-10.62l2.89-1.37c.94-.41,1.88-.74,2.83-1.11s1.93-.58,2.8-.82l1.1-.25.92-.18a11,11,0,0,1,6.88.49,8.21,8.21,0,0,1,3,2.21,7.33,7.33,0,0,1,1.52,3.33c.4-.51.69-.16.88.36s.23,1.17.45,1.16C470.38,48,469.05,51.12,466.93,53.64ZM483,48.06c1.39-6.42-1.12-12.86-5.86-16.18s-10.39-4.3-15.69-4.08c-1.09.08-2.16.2-3.22.37s-2.08.35-3.31.62a76,76,0,0,0-7.61,2l-4,1.37-4.26,1.53-8.58,3.12A280.62,280.62,0,0,0,397,51.23c-1.87,1-3.64,2.18-5.4,3.29-1.93,1.2-3.78,2.2-5.54,3.19s-3.4,2-5.06,2.9l-1.44.93c.26-.19.55-.39.81-.59-2.54,1.3-4.92,2.73-7.44,4.25A72,72,0,0,0,365,70.37l-1.34,1.44-.56-.74c6.15-6.46,14.33-12,23-17s18.12-9.06,27-13.18c5.82-2.65,11.87-5.12,18.1-7.39q4.65-1.74,9.43-3.37c3.24-1.16,6.14-2.1,9.24-2.88a64,64,0,0,1,8.85-1.48,36.85,36.85,0,0,1,8.57.28,25.34,25.34,0,0,1,8.43,2.81A18,18,0,0,1,482.43,35a12.63,12.63,0,0,1,1.69,6.42A22.61,22.61,0,0,1,483,48.06Zm-89.29-5.78c2.93-1.66,6-3.45,9.23-5l4.86-2.44,5-2.29c3.29-1.57,6.61-3,9.82-4.41.23-.23.45-.45.64-.68l3-1c1.62-.8,3.34-1.74,4.4-2.33,3.41-1.37,6.82-2.61,10.25-3.94A79.73,79.73,0,0,1,452.11,17a52.11,52.11,0,0,1,13.17-.87,35.73,35.73,0,0,1,13.31,3.44,28.34,28.34,0,0,1,4.27,2.35,20.28,20.28,0,0,1,6,6.21,24.25,24.25,0,0,1,3.22,8.11,22.88,22.88,0,0,0-4.95-10.06,26.26,26.26,0,0,0-8.57-6.61A35.81,35.81,0,0,0,464,16.71a53.07,53.07,0,0,0-7,.51c-1.16.11-2.16.38-3.23.57s-2.08.43-3.07.69a111.57,111.57,0,0,0-11.85,3.78c-3.93,1.38-8.07,2.8-12.59,4.22-1.11.53-2.15,1.06-2.9,1.32l-.76.34c-4,3.59-16.24,8.21-26.43,13.28,2.1-.26-3.47,2.11-3.18,2.73a248.35,248.35,0,0,0-26.91,21c-2.91,2.74-5.91,5.33-8.87,7.92l-8.45,8.08-.4.44-.62-.06h0c1.35-1.61,2.82-3.07,4.24-4.61,1.73-1.8,3.43-3.66,5.22-5.41l5.53-5.06c.93-.84,1.85-1.7,2.79-2.52l2.93-2.35,5.87-4.69,6.1-4.39c2-1.53,4.13-2.86,6.23-4.23s4.16-2.86,6.34-4.11A182.31,182.31,0,0,0,357.51,68c-4.85,4.13-9.48,8.51-14,13.07L343,81a241.4,241.4,0,0,1,42.69-33.63C388.12,45.73,390.78,43.89,393.75,42.28ZM353,69.25c-1.09,1.12-2.16,2.27-3.27,3.38l-2.95,3a40.48,40.48,0,0,0-2.87,3.12L342,80.91l-.26,0Q347.06,75,353,69.25ZM337.12,83.36c-.57.7-1.13,1.41-1.69,2.12h-.22c.57-.71,1.14-1.41,1.73-2.11Zm-.56,0c-.62.69-1.21,1.41-1.81,2.11l-2.58-.08c.25-.29.49-.6.74-.89s.73-.81,1.08-1.22Zm-18.47.75a55.68,55.68,0,0,1,6.71-.69c2.05-.11,4.32-.21,6.72-.19l-1.68,2.13c-6.51,0-11.72.48-14.75,1.65C313.14,85.75,314.56,84.81,318.09,84.09Zm-43.36,19.49c0,.19-.09.38-.13.57l-.52.06c.05-.19.09-.39.14-.58Zm-24.58,4.34a215.74,215.74,0,0,0-34.34,10.21q-2.64,1.05-5.33,2l-5.28,2-.63,0c2.15-.84,4.27-1.75,6.44-2.54l6.49-2.34c3.48-1.49,6.86-3.36,8.68-3.93,3.54-1.39,7.67-2.49,12-3.7,4.39-1,9-2.15,13.65-3a92.29,92.29,0,0,1,15.8-2.39c-.11.29-.23.58-.34.88Q258.77,106.25,250.15,107.92ZM272.81,110a4.6,4.6,0,0,1,.2-1.22l.36,0C273.11,109.61,272.92,110.08,272.81,110Zm4.07-6.14c0-.18.05-.37.07-.54l1.23-.12c1.9-.09,3.74-.91,3.72-1.28,1.67,0,3.25,0,4.76-.08s2.95,0,4.35-.12c2.8-.09,5.42-.43,8.05-.52s5.26-.29,8.07-.37,5.82.13,9.16.43l-5.72-1.12c3.1,0,5.9,0,8.77,0-.45.7-.91,1.39-1.35,2.09A310.41,310.41,0,0,0,276.88,103.9Zm42.28-1.61c.48-.7,1-1.41,1.46-2.1h.8l1.51,0-1.57,2.12C320.63,102.32,319.89,102.31,319.16,102.29Zm-.84,6.82.27,0Q312.2,119.23,306.53,130C310.11,123,314,116,318.32,109.11Zm.64,2.36c.42-.75.88-1.47,1.35-2.18h.17l-.27.39-7,11.42Zm-63.11,138,.27-.16-.89,1.69A4,4,0,0,1,255.85,249.46Zm-.52,2.6a.28.28,0,0,1-.08-.12c2.78-4.43,5.63-9.06,8.33-12.15C260.78,244,258,248.59,255.33,252.06Zm21-22.69-.07-.05.11,0Zm45-50.12a15.86,15.86,0,0,1-1.69,1.69l-.46.41-.7.53L317,183a53,53,0,0,0-6.1,5.2c-1.23,1.2-2.34,2.57-3.53,3.82-5.63,5.78-10.87,12.07-16.51,18.79-2.23,2.72-4.67,6-6.68,9-.68,1-1.42,1.9-2.17,2.79l-.22,0,2.64-3.4c.62-1,1-2.28,1.38-2.72a75.81,75.81,0,0,1,5.06-6.51c1.31-2,3.57-3.86,5.47-6.07.41-.42.56-1.1.44-1.23,3.11-2.62,4-5,7.15-7.64l-1.52.9c1.58-1.72,2.64-3.15,4.72-5.17,1.76-1.47,2.67-3.13,4-4.17a75.63,75.63,0,0,1,6.67-5.12c1.24-.83,1.81-1.27,2.65-1.86l2.41-1.72C322.5,178.52,321.74,178.87,321.39,179.25Zm5.94-9.25a57.72,57.72,0,0,0-5.55,2.05c-1,.51-2.15.95-3.25,1.57l-1.69.9-1.59.92c-7.69,4.58-15.19,11.4-16.09,14.91-1.58,0,0-2.6,2.53-5.51a51.84,51.84,0,0,1,8.27-7.46l4.07-2.63,2.43-1.47,2.87-1.58a42.35,42.35,0,0,1,12.18-4.22C332.29,168.52,330.43,169,327.33,170Z"/><path class="cls-1" d="M307.25,242.53c-.38,2-.71,4-.93,6l-.21,1.72c-.05.51-.11,1-.16,1.54-.09,1-.16,2-.18,3.08,0,2,.08,4.23,1.31,6a4,4,0,0,0,2.55,1.61,8,8,0,0,0,3,0,21,21,0,0,0,5.62-2,2.13,2.13,0,0,0-.55-1.58A25.12,25.12,0,0,1,313,260.1a5.64,5.64,0,0,1-2.45-.16,3.18,3.18,0,0,1-1.87-1.6,9.33,9.33,0,0,1-.62-5.07,24,24,0,0,1,.42-2.63c.25-1.12.58-2.44,1-3.74v-.26a22.93,22.93,0,0,1,.57-3.95,35.63,35.63,0,0,1,1.33-4.32c1.1-3,2.5-6.11,3.49-9,1.86-5.81,4.62-11.22,7-16.88-4.48,7.5-8.38,14.83-12.27,22.48A71.51,71.51,0,0,0,307.25,242.53Z"/><path class="cls-1" d="M329.59,186.26a2.5,2.5,0,0,0,0-2.1,1.48,1.48,0,0,0-.67-.58,1.9,1.9,0,0,0-1.39,0,.73.73,0,0,1,.79.62,2.64,2.64,0,0,1,0,1,15.87,15.87,0,0,1-.5,2.85c-.14.53-.29,1.1-.47,1.71l-.3,1-.92,2.05c1.33-2.35,1.51-2.75,2-3.74Z"/><path class="cls-1" d="M324.11,197.18c.7-1.52,1.37-3,2.05-4.47q-4.85,8.59-9.65,17.11c-2.47,4.84-4.93,9.72-7.22,14.75a93.84,93.84,0,0,0-5.84,15.85c-.29,1.25-.57,2.49-.86,3.72a65,65,0,0,1,2.57-7.45c1-2.4,2.11-4.71,3.25-7,2.27-4.52,4.68-8.84,7-13.07,4.69-8.45,9.19-16.56,12.47-24.39.12-.28.25-.59.37-.89-3.89,6.89-7.92,13.84-11.77,20.87C319.07,207.19,321.66,202.2,324.11,197.18Z"/><path class="cls-1" d="M310.43,232.63l-.77,1.56c-.22.65-.44,1.28-.66,1.91l.54-1.09C309.84,234.21,310.14,233.42,310.43,232.63Z"/><path class="cls-1" d="M322.61,220l.13-.19,2.72-5.1c1.11-2.48,2.34-5,3.66-7.62A112.52,112.52,0,0,0,322.61,220Z"/><path class="cls-1" d="M334.82,208.05l1.26-2.08.3-1.13-.92,1.46Z"/><path class="cls-1" d="M339.91,167.14a10.32,10.32,0,0,1,1.9.63l.25.11a11.88,11.88,0,0,1,2.09,1.1,4.73,4.73,0,0,1,1.71,1.73,10.38,10.38,0,0,1,1.18,4.18,22.87,22.87,0,0,1-1.3,9.43,87,87,0,0,1-4.87,11l-1.46,2.82-.9,1.8-1.72,3.41c-.13.49-.27,1-.41,1.48q1.35-2.15,2.62-4.35l1.44-2.57c.7-1.27,1.39-2.54,2-3.8,2.6-5,4.66-10,5-13.91a41.14,41.14,0,0,0-.18-4.82,9.18,9.18,0,0,0-1.76-5.63A9.9,9.9,0,0,0,343,168a17.28,17.28,0,0,0-2.93-1,25.48,25.48,0,0,0-7.9-.38A25.92,25.92,0,0,1,339.91,167.14Z"/><path class="cls-1" d="M384.71,238.62c.82-.77,1.62-1.55,2.39-2.33C386.31,237.08,385.51,237.85,384.71,238.62Z"/><path class="cls-1" d="M368.17,251.32c-2.42,1.19-5.36-.31-6.47,1.13a3.39,3.39,0,0,0,.84.17l.44,0,.67-.07.69-.05.77-.17a11.08,11.08,0,0,0,1.62-.42,32.81,32.81,0,0,0,6.95-3.19,73.56,73.56,0,0,0,13.54-10.44c.08-1.06,2.62-3,3.29-4.42-3.74,3.17-6.78,5.79-10.29,8.88q2.28-2,4.49-4.16A87.18,87.18,0,0,1,368.17,251.32Z"/><path class="cls-1" d="M340.79,214l-.17.56.36-1.06C340.92,213.63,340.85,213.8,340.79,214Z"/><path class="cls-1" d="M337.51,229.09a19.39,19.39,0,0,1,1.68-4.69c-.4-2.35.21-6,1.43-9.88A69.58,69.58,0,0,0,337.51,229.09Z"/><path class="cls-1" d="M345.77,202.53A72,72,0,0,0,341,213.46a95.3,95.3,0,0,1,4.84-10.91Z"/><path class="cls-1" d="M342.43,260.58a23.8,23.8,0,0,0,1.78,2.83c.71.91,1.46,1.81,2.23,2.68a11.65,11.65,0,0,1-1.42-2.56A15.07,15.07,0,0,1,342.43,260.58Z"/><path class="cls-1" d="M375.93,268.71a4.44,4.44,0,0,0-1,.81A51.94,51.94,0,0,0,381.1,266l-2.46,1.33Z"/><path class="cls-1" d="M451.29,228.27c.06-.29.11-.51.16-.77l0-.14c0,.11-.07.28-.1.44A2.08,2.08,0,0,0,451.29,228.27Z"/><path class="cls-1" d="M451.48,227.36l0-.19,0,.12v.07Z"/><path class="cls-1" d="M477.34,231.24c-.1.09-.16.19-.14.25s.14,0,.24-.06c3.16-2.54,6.32-5.26,9.48-8,.11-.09.17-.2.14-.24s-.14,0-.23.1C483.65,226,480.5,228.71,477.34,231.24Z"/><path class="cls-1" d="M502.8,211.92a1.52,1.52,0,0,0,.22-.27c.05-.07,0-.09,0,0a1.84,1.84,0,0,0-.23.27C502.7,212,502.72,212,502.8,211.92Z"/><path class="cls-1" d="M508,205.56l-.18.21c-5,5.76-9.76,11.47-14.13,17.36l-.77.92h0a1.75,1.75,0,0,0-.85.24c1.65-2,3.29-3.95,4.94-5.94l4.26-4.86c.2-.24.34-.46.3-.5s-.23.13-.45.37l-1.06,1.18c.23-.37.34-.65.27-.74s-.29,0-.61.22q2.3-2.64,4.67-5.09c.1-.09.14-.15.1-.13a2.5,2.5,0,0,0-.25.21c-2.39,2.3-4.62,4.64-6.82,7-1.94,1.7-3.87,3.32-5.89,5.17a103.52,103.52,0,0,0-7.86,8.23c-1,.88-2,1.74-3,2.6a.5.5,0,0,0-.06-.49.21.21,0,0,0-.1-.06l2.56-2.34c4-3.7,7.65-7.62,11.37-11.43a109.63,109.63,0,0,1,11.92-10.94c.57-.43,1-.75.9-.71l-1.24.83a83.63,83.63,0,0,0-11.73,9.83c-2.6,2.58-4.8,4.9-7.32,7.52-2.94,3.07-5.83,5.74-8.86,8.45a11.55,11.55,0,0,0-.94.76l-.88.84a67.88,67.88,0,0,1-7.29,5.44,80.5,80.5,0,0,0,7.77-7.4c.19-.18.25-.37.16-.43s-.34,0-.52.22a94.3,94.3,0,0,1-11,9.28,12.51,12.51,0,0,0-5.26,1.18,7.79,7.79,0,0,0-1.43.83,5.49,5.49,0,0,1,.66-.13,5.37,5.37,0,0,0-.86.48c-.26.13-.45.35-.78.51l-.2,0c-.86-.15-1.66-.23-2.29-.29l-1.23-.15-.15.2c-.07-.07,0-.17-.12-.23l-.05.15h0c0-.12-.17-.19-.38-.34a22.7,22.7,0,0,1-1-3,1,1,0,0,0,0-.18,3.87,3.87,0,0,0-.08-.93,4.77,4.77,0,0,1,0-.5c.07-1.1,0-2.6-.06-4.42l0,1c0-.51,0-1-.08-1.62l0,.18c0-.5,0-1.08,0-1.69.91-1.14,1.8-2.28,2.67-3.45,5-7.39,9.44-15.29,12.07-24.06.3-1,.59-2,.87-3-3,7.91-7.46,14.78-11.93,21.15-1.29,1.85-2.6,3.63-3.91,5.39,0-.13,0-.27,0-.39,0-1.36,0-1-.21.69l0,0c0-.76.09-1.42.14-1.83,0-.26,0,0,0,0s-.16.68-.35,1.68c0,.19-.06.38-.08.56l-.1.12,0-.09c.06-.32.06-.3.23-1.14l-.1.39.08-.34,0,.08.05-.15,0-.16.17-.67.1-.51,0-.15,0-.2c2.6-3.6,5.19-7.33,7.66-11.28a91.11,91.11,0,0,0,5.25-14.66,58.84,58.84,0,0,1-5.08,14.37,75.44,75.44,0,0,0,7.35-15,45.26,45.26,0,0,0,1.43-9.47,18.8,18.8,0,0,0-2-9.57,8.75,8.75,0,0,0-2.71-3,10.24,10.24,0,0,0-2.4-.26,18.86,18.86,0,0,1,3.54,3.8c-.16-.15-.29,0-.39,0a15,15,0,0,1,2.13,6.56,38,38,0,0,0-2.24-5.56,14.61,14.61,0,0,0-3.94-4.72,5.25,5.25,0,0,0-.87.23,14.49,14.49,0,0,1,3.79,4.75,17.16,17.16,0,0,1,1.5,6.14,39.9,39.9,0,0,1-2,13.68,49.69,49.69,0,0,1-1.54,5.07l1.35-2.29c-.41.87-.81,1.73-1.26,2.58-.21.4-.41.81-.64,1.21a76.42,76.42,0,0,1-4,8.55c1.17-2.39,2.28-4.85,3.31-7.36-2.74,4.66-6.2,9-9,13.59a91.38,91.38,0,0,1-5.46,8.34c0,.1,0,.2,0,.3l-.54.52c-.2.4-.39.86-.51,1.15a69.41,69.41,0,0,1-7.06,8.16l-.64.74a16.17,16.17,0,0,1-2.71,2.11,36.11,36.11,0,0,0,3.35-2.85c2.73-3.28,4.29-6.24,7.57-9.31a2.71,2.71,0,0,1,.4-.66l.12-.16c0-1.67,2.08-3.94,3.8-6-.6.09.47-.86.17-1.13,1.22-2.72,2.3-5.46,3.16-7.72,1.52-3.48,3.81-6.41,4.31-9.8.1-1,1.1-2.49,1.48-3.79.09-.6.18-1.22.27-1.85-.31.57-.64,1.13-1,1.67-.19.16.77-2.51,1.29-5.16s.58-5.14.15-5c-.1,0-.27,2-1.09,4.9a44,44,0,0,1-4,9.57c-1.15.8-1.9-2.52-1.71-3.33v-.34c-.49.81-1,1.63-1.51,2.43-.59,1.41-1.28,2.83-2,4.24-1.16,2.27-2.46,4.53-3.87,6.75.3-.66.6-1.31.86-2,.11-.34.24-.67.37-1a51.85,51.85,0,0,1,4.63-8,50.05,50.05,0,0,0,1.77-4.79l0-.13a52.17,52.17,0,0,1-3.27,5.46,78.54,78.54,0,0,1-5.95,10.82c.31-.64.59-1.3.87-2,1-3,3.07-5.84,5.08-8.85A42.27,42.27,0,0,0,452.44,197c-.75,2-1.85,4.28-2.8,6.39a100.58,100.58,0,0,1-14.68,24,11.83,11.83,0,0,1-1.81,3,48.22,48.22,0,0,1-5.92,5.63c.57.08-.46.83-.35,1a12.08,12.08,0,0,1-3,2.73,20.22,20.22,0,0,1-1.8,1.06c-.33.18-.44.23-.64.32l-.53.25c-.21.09-.26-.1-.5-.18a5,5,0,0,1-3.82,2.52,3.72,3.72,0,0,1-2.37-.49,4.11,4.11,0,0,1-1.59-1.94,6.44,6.44,0,0,1-.74-2.51,15.58,15.58,0,0,0,.74,2.51,3.23,3.23,0,0,0,2.17,1.65,4.94,4.94,0,0,0,2.74-.33,4.47,4.47,0,0,1-3.12-.11,4.18,4.18,0,0,1-2-2.37,9.87,9.87,0,0,1-.78-3.24,16.91,16.91,0,0,1,0-1.75c0-.29.06-.59.08-.91l.14-1.22a66,66,0,0,1,2.39-9.83,88.39,88.39,0,0,1,3.67-9.7,36.63,36.63,0,0,1,4.47-7.21,7.4,7.4,0,0,0-.08.81c2.12-2.79,4.1-5.52,6.2-8.44l.57-.8a74.45,74.45,0,0,1,14.45-15.46,50.77,50.77,0,0,1,4.26-3.31c1-.9-1.49-.73.35-2.13a2.71,2.71,0,0,1-.4,0c-1.37,1.15-2.42,2.35-3.06,2.29-1-.32,1.47-2.69,3-4.53a2.1,2.1,0,0,1,0-.55l.62-.34.13-.25a1.07,1.07,0,0,1-.2-.86c-.78.44-1.58.84-2.32,1.31a6.47,6.47,0,0,1,2.08-2.75v0l.1,0,.81-.59h0c-3.21.64-3.5.29-2.94-.85a11,11,0,0,1,1.52-2c.65-.76,1.34-1.58,2-2.36a10.17,10.17,0,0,0-1.17.35c-.37.16-.75.34-1.15.56-.07-.19-.23-.56-.23-.56-2.81,1-4.72,1.92-6.69,2.73s-3.73,1.61-5.73,2.57c-1,.51-1.45-.12-2.71.93a84.47,84.47,0,0,0-9.21,8.79,182.47,182.47,0,0,0-15,21.29c.07,0,.12,0,.15,0-1.11,1.77-2.13,3.64-3.19,5.53s-1.3,3.59-2.23,5.57a67.41,67.41,0,0,0-4.1,10.52,53.81,53.81,0,0,0-1.38,5.79c-.11.49-.15,1-.23,1.54l-.23,1.8a33.42,33.42,0,0,0-.12,4.25c0,.24,0,.48,0,.72A52.84,52.84,0,0,1,386.14,249l-.09.15c-1.62,2.71-5.7,5.23-8.52,7.65a28.48,28.48,0,0,1-9.7,5.77c5.43-.83,10.06-3.57,14.74-6.3,1.28-1.09,2.51-2.24,3.73-3.42.89-1,1.73-2,2.53-3,2.4-2.86,5.18-5.91,7.61-9.18,0,.2,0,.4.05.59-.76,1-1.54,2-2.34,3a105,105,0,0,1-7.85,8.6c-1,1-2,2.07-3.06,3,.62-.35,1.23-.72,1.84-1.1-.61.47-1.24.92-1.88,1.34l-.92.62a43.76,43.76,0,0,1-6.22,4.46,59.46,59.46,0,0,0,5.27-3.88,53.94,53.94,0,0,1-5.88,3c-2,.83-4,1.66-6.07,2.36a18.54,18.54,0,0,1-8.05,1.29l-.2.17-.63-.17-1.08.05a15.14,15.14,0,0,1-8.36-4.82l-.66-.62a12.94,12.94,0,0,1-1.66-2.67,17.22,17.22,0,0,0,2.32,3.29c.36.32.7.64,1.06.92l1.14.74a13.1,13.1,0,0,0,2.27,1.22,45.46,45.46,0,0,0,5,1.89,2.06,2.06,0,0,1,.66,0h.17c1.17-.7,3.62-.52,5.8-.75-.41-.29.74-.28.7-.62a30.27,30.27,0,0,0,5.55-3.47c2.43-1.67,5.16-2.77,6.8-5a2.07,2.07,0,0,1,.32-.36l.39-.26-.3.16c.59-.53,1.5-1.05,2.11-1.67.28-.4.6-.81.93-1.22l-1.4.79c-.19,0,1.51-1.51,3.07-3.21s2.94-3.55,2.59-3.67a6.09,6.09,0,0,0-.92.89c-.55.59-1.37,1.37-2.3,2.29A41,41,0,0,1,378,253c-1.12.07-.46-2.64,0-3.11l.13-.24c-.65.38-1.32.7-2,1.06a33.64,33.64,0,0,1-2.87,2,24.75,24.75,0,0,1-4.77,2.44,9.72,9.72,0,0,0,1.21-.8c.18-.16.38-.31.57-.45a41.19,41.19,0,0,1,5.86-3.19l1.56-1.27,1.51-1.36.06-.09a34.28,34.28,0,0,1-4.37,2.42,29,29,0,0,1-7.37,4.08l1.15-.75c1.56-1.31,3.76-2.15,6.22-3.33a40.39,40.39,0,0,0,6.28-5.84c-1.49,1.19-3.25,2.36-4.69,3.46a36.23,36.23,0,0,1-8.37,5.09,15.44,15.44,0,0,1-3.61,1.07,7.25,7.25,0,0,1-2.91,0,2.25,2.25,0,0,1-1.62,0c-1.14-.48-2.2-1.87-3.13-3.26-.18.43-.54-.37-.69-.3a4.63,4.63,0,0,1-1-1.27c.21-.18.43-.35.68-.53.26.47.52.93.79,1.35l.11.23a10.94,10.94,0,0,0,.92,1.21,7.16,7.16,0,0,0,3.92,2.59,4,4,0,0,0,.49-.17c-.45-.25-.88-.53-1.33-.84a4.21,4.21,0,0,0,.94,0,5.07,5.07,0,0,1-1.16-.3c-.19-.08-.34-.23-.52-.31a1.41,1.41,0,0,1-.5-.33,5.18,5.18,0,0,1-1.46-2,15.82,15.82,0,0,1-.86-2.6l0-.06a1.27,1.27,0,0,0,.66.43l.75-.5c.21.4.47.71.67,1.08l.22.39c.07.11.12.12.18.18a1.75,1.75,0,0,0,.32.21.63.63,0,0,0,.54.06,1.8,1.8,0,0,0,.77-.6,4.65,4.65,0,0,0,.52-.7,3,3,0,0,0,.13-.28c0-.06,0-.11-.06-.36l-.3-.69a2.44,2.44,0,0,1-.3-.8l-.06-.22c4.16-2.79,8.29-5.77,12.36-9.1,1.54-1.21,3-2.56,4.49-3.87l3.71-3.74a5.78,5.78,0,0,0,1-2,47.23,47.23,0,0,0,5.52-5.18c.16-.44.71-1.18,1-2.07a11.83,11.83,0,0,0,1.42-1,73.69,73.69,0,0,0,5.65-9.29l-.06,0,.59-1.29c.21-.48.37-.76.69-1.55.58-1.36,1.17-2.76,1.67-4.22a38.64,38.64,0,0,0,2.06-8.8,21.39,21.39,0,0,0-.26-6.55.06.06,0,0,0,0,0v0a20.42,20.42,0,0,0-1.4-5.66,1.43,1.43,0,0,1-.41.85,5.75,5.75,0,0,1,.86,1.83,8.28,8.28,0,0,0-1.66-2.54,10.92,10.92,0,0,0-2.77-5.26,16.82,16.82,0,0,0-3.29-2.16,15.82,15.82,0,0,0-3.64-1.19,19.76,19.76,0,0,0-7.73.09c-.47.31-.11.48-.08.67a31.56,31.56,0,0,0-7.15,1.93l-1.64.81-1.6,1-1.62,1-1.54,1.07-1.11.78-.3.18a57.68,57.68,0,0,0-5.36,4.27,4.93,4.93,0,0,1,1.09-1.81c.75-.64,1.48-1.28,2.23-1.89l1.09-.92,1.69-1.27-1.63,1.15-1,.81c-.68.54-1.36,1.07-2,1.64-1.31,1.11-2.53,2.28-3.74,3.45a74,74,0,0,0-6.51,7.49,10.58,10.58,0,0,1,1.49-1c.36-.89.95-1.68,1.14-2.12a45,45,0,0,1,5-4.4c-.65.6-1.27,1.22-1.89,1.85l-.67.66a53.82,53.82,0,0,0-6.18,7.71l0,0h0c-.93,1.38-1.85,2.85-2.73,4.41l-.06.1c-.06.09-.09.17-.14.25-.13.24-.27.46-.39.69v0c-.38.79-.63,1.57-1,2.36-.67,1.22-1.3,2.44-1.91,3.61s-.94,2.37-1.35,3.53a58.89,58.89,0,0,0-3.59,29.09q.59,1.36,1.08,2.88c-.08-.71-.12-1.45-.13-2.22.43.85.78,1.79,1.17,2.76.22.54.42,1.12.64,1.68l-.75.47c-.31-.9-.63-1.81-.93-2.69a17.85,17.85,0,0,0,.64,2.88l-.6.38c-.16-.72-.31-1.43-.47-2.15-.29-1.32-.44-2.66-.65-4l-.31-.73a20.68,20.68,0,0,0,.51,4.69c.21.81.45,1.57.71,2.31-.72.44-1.43.86-2.15,1.28l-.13-2.09c0-1,0-2,0-3-.17.06-.37.4-.6.06l.33,3,.35,2.09a87.14,87.14,0,0,1-18.36,8.41c4.52-.71,11.69-5,16.26-6l-1,1.34c1.21.12,4.26-1.39,5.95-2a4.16,4.16,0,0,1-2.18,1.25l1.7-.58c-5.35,3.94-17.18,9-14.95,10.34,2,1.23,10.12-3.45,17.12-7.44.05.11.08.22.13.34s.11.22.15.33c-5,4.27-11.62,7.45-16.89,11.16,1.74-.51,3-.37,5.22-1.57,2.86-1.49,5.71-3,8.54-4.56,1.48-1,2.8-2,4.18-2.86a32.54,32.54,0,0,0,2.86,4.4,21.26,21.26,0,0,0,6.17,5.26,22.66,22.66,0,0,1-7.37-8.79c-.25-.48-.52-.92-.78-1.37l.34-.17.61,1.11.48.88.58.84c.39.55.77,1.09,1.15,1.61s.88,1,1.31,1.45a16,16,0,0,0,2.74,2.3,21.93,21.93,0,0,1-4.67-5.79c-.63-.92-1.13-1.8-1.67-2.66l.42-.17,1.07,1.94a26.87,26.87,0,0,0,2.25,3l1.25,1.33a15.4,15.4,0,0,0,1.35,1.12,12.35,12.35,0,0,0,2.71,1.63,9.21,9.21,0,0,0,1.53.61c.52.17,1,.38,1.55.51a20.85,20.85,0,0,0,3.19.54,22.31,22.31,0,0,0,6.28-.33A39.74,39.74,0,0,0,379,260.65a78,78,0,0,0,9.45-8.41,48.91,48.91,0,0,1-9.21,8.28,63.37,63.37,0,0,0,11-7.71,102.77,102.77,0,0,0,6.91-7.76,26.13,26.13,0,0,0,3.12,7.4,16,16,0,0,0,12.45,7.16,29.72,29.72,0,0,0,5-1.12,12.9,12.9,0,0,1-3.57.09,37.16,37.16,0,0,0,9.58-3.79c.8-.45,1.61-.9,2.4-1.41l1.18-.73.91-.64c1.18-.84,2.32-1.71,3.43-2.59a65.65,65.65,0,0,0,9.22-8.68,15,15,0,0,0-.39,1.85c-1.5,1.35-3,2.66-4.68,3.9-2.33,2-4.19,4.08-6.35,6.12a66.4,66.4,0,0,0,11-9.63c0,.32-.09.63-.11,1s0,.41,0,.61c-1.62,1.41-3.31,2.78-5.09,4.08-1.49,1.22-2.83,2.48-4.17,3.74-.67.64-1.34,1.27-2.06,1.9a10.71,10.71,0,0,1-1.33,1l-1.67,1.14a43.57,43.57,0,0,0,6.34-3.87,61.14,61.14,0,0,0,8-7.25,15.68,15.68,0,0,0,.55,3.76,15.19,15.19,0,0,0,2.67,5.31,16.53,16.53,0,0,0,2.05,2.2,21.4,21.4,0,0,0,2.27,1.71,24.4,24.4,0,0,0,2.29,1.24c.73.3,1.52.64,2.24.88s1.44.42,2.16.6l2.05.38a21.5,21.5,0,0,0,4.81.06,26.27,26.27,0,0,0,8.22-2.23,40.4,40.4,0,0,0,8.84-5.54,90.3,90.3,0,0,0,7-6.28,77,77,0,0,0,9.7-14.51c2.25-4.27,3.35-8,5-11.86.05-.11,0-.15,0-.11a.93.93,0,0,0-.2.3c-3,5.86-6.15,11.79-10.62,17.3-.52.62-1,1.24-1.57,1.81a1.2,1.2,0,0,0-.21.19L486.11,242l.5-.56c.35-.37.54-.79.43-.95s-.15-.07-.27,0c1.11-1.49,2.1-3,3.05-4.57a7.64,7.64,0,0,0,.79-1.23c1.39-1.48,2.71-3,4-4.62l.33-.38a3.78,3.78,0,0,0,.77-1.51.62.62,0,0,0,0-.28c2.47-4,4.79-8.15,6.78-12.11.1-.2.13-.32.08-.32a1.1,1.1,0,0,0,.15-.24c.22-.49.49-1,.79-1.55.06-.12.08-.2,0-.15a.89.89,0,0,0-.19.27c-.3.55-.59,1.1-.84,1.62a.45.45,0,0,0,0,.11,2.11,2.11,0,0,0-.29.43c-2.31,3.87-4.43,7.77-7,11.53,1.11-2,2.29-4,3.52-6.05,1.46-2.52,2.74-4.88,4.26-7.35.08-.13.12-.22.1-.22s-.11.09-.19.22c-3.23,5-5.47,9.88-9.18,14.83l-.45.56c.86-1.74,1.73-3.48,2.59-5.2,3.3-4.59,6.31-9.34,9.26-14,.15-.22.25-.42.22-.43a1.7,1.7,0,0,0-.31.39c-1.79,2.57-3.69,5.07-5.66,7.53l.34-.57.38-.54q1.83-2.43,3.61-4.9a3.8,3.8,0,0,0,.72-1.24c-.06-.06-.45.34-.92.9l.21-.28c.07-.1.11-.18.08-.16a1.67,1.67,0,0,0-.22.23l-.73,1-7.36,8.88c2.49-3.3,5.11-6.57,7.81-9.83,0,.08,0,.1,0,0a1.44,1.44,0,0,0,.22-.27c.06-.08,0-.08,0,0h0l4.39-5.25Zm-69.75-28.5-.27,0c.35-.42.71-.83,1.07-1.22A2.62,2.62,0,0,1,438.25,177.06Zm.88-2.22a.3.3,0,0,1,.06.15c-3.37,3-6.33,6.37-9,8.51C433,180.37,436,177,439.13,174.84Zm-21.07,15.95.07.05-.1,0Zm-73.75,32.67c-.47,4.21-.7,8.48.14,11.81-.36-.41-.32-1.25-.48-1.67-1.17-2.55-.58-7.26-.42-11.17.12-1.24.06-2.55.27-3.8.4-.56.79-1.07,1.14-1.48-.08.61-.18,1.25-.33,2C344.17,220.82,344.59,222.22,344.31,223.46ZM357,234.37l-.57.47a5.43,5.43,0,0,0-.41-2.55c-.06,1-.06,1.94,0,2.91l0,0c0-1,0-2,0-3l.05.06c.55-10.54,5.91-20.55,12.83-28-1.18,4.18-4.3,4.92-5.7,7.52a55.23,55.23,0,0,0-5.51,18.43,48.89,48.89,0,0,1,.72-5.08A79,79,0,0,0,357,234.37Zm.56-3.16c-.06.76-.1,1.52-.1,2.27C357.45,232.72,357.48,232,357.54,231.21Zm-5.31,6.89-.51.37a32.92,32.92,0,0,1-.26-6.83,33.63,33.63,0,0,1,.22-3.44c-.05,1.13-.14,2.28-.22,3.44a30.83,30.83,0,0,0,.84,6.41Zm-.57.42c-.32.24-.64.46-1,.7a4.23,4.23,0,0,1-.82-2.11,59.83,59.83,0,0,1,1.37-13c-.09,1.3-.19,2.48-.28,3.27A27.86,27.86,0,0,0,351.66,238.52Zm10,20.22a16.31,16.31,0,0,0,5.58-.28c.34-.12.66-.24,1-.38a7,7,0,0,1,2-.5l.27-.12-.15.1a16.27,16.27,0,0,0,3.11-.54l.25-.29.13.33a43.57,43.57,0,0,1-6,2.35c-.5.18-1,.35-1.52.5l-2,.19a11.39,11.39,0,0,1-6.29-1.1,18.6,18.6,0,0,1-5.56-4.36,7.93,7.93,0,0,1-1.19-2.38,15.57,15.57,0,0,0,10.46,6.48Zm6-33.87c-2.4,2.36-4.91,4.65-7.49,6.86.06-.57.12-1.14.2-1.71a63.11,63.11,0,0,1,5.73-17.7,43.15,43.15,0,0,1,10.49-15.2l.52-.4.27-.2a.45.45,0,0,1,.1-.05l.3-.16.49-.23a2.38,2.38,0,0,0,.79-.58,3.93,3.93,0,0,1,3.1-1.92,2.69,2.69,0,0,1,2.47,2.31,10.11,10.11,0,0,1-.23,4.88,45.22,45.22,0,0,1-4.27,9.14A87.94,87.94,0,0,1,367.66,224.87Zm23-29.29a32,32,0,0,1-2.12,6.28,62.87,62.87,0,0,1-7.4,12.14,2.71,2.71,0,0,0,.52-1.46c-.28.42-.56.85-.86,1.26-.73,1.16-1.52,2.29-2.33,3.34.71-1.15,1.55-2.23,2.33-3.34.3-.47.59-1,.88-1.42a1.82,1.82,0,0,1,.7-1.2c1.27-2.23,2.35-4.3,3.37-5.72a22.6,22.6,0,0,0,3.68-8,30.59,30.59,0,0,0,.83-7.8c-.11-1.25.19-1.19.6-.75a8.41,8.41,0,0,0-.28-1,7.49,7.49,0,0,0-4.6-3.12c-2-.64-4.12,0-6,.61l-1.12.54.56-.31a33.82,33.82,0,0,0-7,4.05,58.09,58.09,0,0,0-7,6.19,65.37,65.37,0,0,0-6.58,9.16,56.53,56.53,0,0,1,14-14.7,118.55,118.55,0,0,0-9.11,10.79,64.72,64.72,0,0,1,6.41-6.93c1.82-1.42,4-2.95,5-3l-.64.42a8.32,8.32,0,0,0-.69.51c-.54.43-1.06.84-1.54,1.28a22.2,22.2,0,0,0-2.55,2.71c.94-.89,1.93-1.72,2.92-2.55l1.52-1.16c.5-.38.76-.52,1.14-.78a18.14,18.14,0,0,1,4.28-2.08,16.16,16.16,0,0,0-4.54,2.82l-6.52,5.46a16.93,16.93,0,0,1,1.2-1.71,55.78,55.78,0,0,0-14.91,23.41c1.46-2.12,2.48-5,3.85-7.91a24.68,24.68,0,0,1,5.11-7.73c-5.42,8.36-9.65,18.24-10.11,28.55a41.16,41.16,0,0,0,0,4.58c-.41.32-.82.65-1.24,1-.19-1.1-.29-2.22-.46-3.32-.07-1.5-.25-3-.18-4.51a42,42,0,0,1,1-9,85.74,85.74,0,0,1,2.23-8.52,64.7,64.7,0,0,1,3.83-7.57c-.93,1.38-1.81,2.79-2.66,4.21.47-1.27,1-2.52,1.54-3.76a64.36,64.36,0,0,1,7.7-9.61,52.15,52.15,0,0,1,9.75-8.91,27,27,0,0,1,5.48-2.93c1.91-.69,4-1.26,6-.66-.87.17-1.75.37-2.62.61a6.18,6.18,0,0,1,4,.7,5.85,5.85,0,0,1,2.58,3.23,9.68,9.68,0,0,1,1.07,2.22,8.49,8.49,0,0,0-.79-1.24A15.62,15.62,0,0,1,390.63,195.58Zm-45.71,56.2-.6.57-.17-.29.72-.4A.61.61,0,0,0,344.92,251.78Zm-1.48.69.52-.3.15.37c-.14.13-.27.27-.42.4Zm57-19.18c0-.49,0-1,0-1.45s0-.88,0-1.32a63.08,63.08,0,0,1,6.7-22.24c1.38-2.81,3-6.11,4.42-8.88a17.16,17.16,0,0,1,1.67-2.62l.22,0c-.7,1-1.39,2.1-2,3.2-.42,1-.52,2.15-.79,2.59-.8,2-2.15,4.14-3.26,6.5-.67,2-2.24,4.12-3.18,6.62-.24.47-.09,1.14.09,1.22a14.19,14.19,0,0,0-1.62,4.53c-.15.74-.29,1.48-.49,2.25a18.65,18.65,0,0,1-.69,2.53l.85-1.45a64.28,64.28,0,0,0-.83,6.57,11.11,11.11,0,0,0-.11,1.64,11.87,11.87,0,0,0,.06,1.7,16.42,16.42,0,0,1,.3,3c.07.79.15,1.58.26,2.35l-.7,1.32c-.15-.67-.27-1.35-.38-2a4.25,4.25,0,0,0,.39-1.05c0-.7-.07-1.39-.15-2-.17.29-.32.6-.48.9,0-.23-.06-.47-.07-.7a1.23,1.23,0,0,0,0-.19c.14-.25.29-.5.42-.76a5.19,5.19,0,0,0-.22-.73c-.09.16-.19.31-.28.46A13.87,13.87,0,0,1,400.48,233.29Zm-4.83,11.42a21.9,21.9,0,0,1,1.08-2c0,.16,0,.33.08.5C396.46,243.69,396.09,244.18,395.65,244.71ZM407,250.93a6.13,6.13,0,0,1-2.45-1.93,18.51,18.51,0,0,1-2-3.47,36.43,36.43,0,0,1-1.05-3.65l.69-1.19a19.48,19.48,0,0,0,1.72,5.84,8.91,8.91,0,0,0,5.22,5.31C408.42,251.92,407.51,251.2,407,250.93Zm8-4.87a4.11,4.11,0,0,1-2.75-.71,5.73,5.73,0,0,1-2.06-3,22.58,22.58,0,0,1-1.05-7.79c0-.6,0-1.31,0-2s0-1.29,0-1.88a8.71,8.71,0,0,0-.53-2.88c1.4-.54,1.54,1.86,1.57,4.64.08,1.51.11,2.61.25,3.64s.27,1.92.3,2.55a8.75,8.75,0,0,0,.52,2.39,4.71,4.71,0,0,0,1.26,2.1,4.25,4.25,0,0,0,4.64.56C417.4,245,416.68,245.84,415,246.06Zm14.56-3.25c2.34-2.36,3.89-4.89,5.91-7.46,3.08-4.37,6.94-8.78,10.3-13.39l.73-1.33a11.52,11.52,0,0,1,1.76-2.27l.21-.35-.1.22c.94-.95,1.94-1.79,3-3l.09-.49.48.36c-1.22,4.24-5.15,7.6-7.77,11.41-3.45,5-8,9.62-11.94,14.41A13.89,13.89,0,0,1,429.57,242.81ZM449.13,231c0-.22,0-.44,0-.65l0,0A5.35,5.35,0,0,0,449.13,231Zm.15,3.06-.16.28h0Zm1.17-1.33v-.09l.07-.43,0-.16.1-.12c-.05.26-.1.51-.14.77l-.07.09v0Zm.36-1,.12-.14-.09.65-.17.25Zm3.81-4.93c-.89,1.35-1.84,2.67-2.78,4,0-.1,0-.2,0-.31C452.78,229.29,453.72,228.06,454.62,226.81Zm-3-.38v0l-.06.23c0,.14,0,.17-.17.64l0-.11c0-.11,0-.1-.2.46l-.3.84-.41,1.3-.13.39-.11.14,0-.13c.08-.32.07-.38,0-.12,0-.39-.1-.21-.36.18,0-.15,0-.22,0-.22a6.55,6.55,0,0,0,.21-1l0-.09a7.68,7.68,0,0,0-.79,1.07l-.12.17,0-.2c-.38.41-1,1.12-1.52,1.81Q449.68,229.17,451.66,226.43Zm-7,9.4c-.06.12-.13.23-.19.36-.2.39-.38.8-.56,1.2s-.21.52-.3.8c.09-.49.14-.86.17-1.18C444.11,236.62,444.4,236.22,444.7,235.83Zm5.3,6.74c0-.11-.07-.32-.14-.2a16.68,16.68,0,0,1-.21-2.93c0-.39,0-.76,0-1.17a10.54,10.54,0,0,0,.41-1.4c-.13,1-.15,2.08-.18,3a16.32,16.32,0,0,0,.25,3A1.7,1.7,0,0,1,450,242.57Zm.32-7.25-.05.2.09-.7c0-.2,0-.35,0-.51l.21-.25-.17,1.21C450.41,235.34,450.35,235.2,450.32,235.32Zm2,8.55,0,0a1.42,1.42,0,0,1-.17-.37v.09a7.55,7.55,0,0,1-.68-2c-.15-1.13-.25-2.58-.3-4.17a9.37,9.37,0,0,0,.29,1.33,10.88,10.88,0,0,0,.83,4.59l.07.22Z"/><path class="cls-1" d="M218.89,168.66l.7-.89-.06,0c-.81,1-1.53,2-2.25,2.82C217.9,169.92,218.47,169.2,218.89,168.66Z"/><path class="cls-1" d="M216.09,172.79a1.11,1.11,0,0,1-.17.16c-.17.23-.34.47-.57.73C215.61,173.4,215.84,173.09,216.09,172.79Z"/><path class="cls-1" d="M226.37,158.05l-.08.11.06-.08Z"/><path class="cls-1" d="M226.66,157.57a4.66,4.66,0,0,1-.29.48l.22-.33A.93.93,0,0,0,226.66,157.57Z"/><path class="cls-1" d="M226.66,157.57c.13-.23.12-.24,0,0Z"/><path class="cls-1" d="M223.74,161.65c-2.59,3.57-7.53,9.51-10,12.24-1.22,1.37-1.73,2-.93,1.3.4-.36,1.14-1.07,2.27-2.24s2.61-2.82,4.43-5.15c-.25.17-1.32,1.27-.21-.23,1.33-1.53,3.76-4.78,5-6.45s0,0,0,0c.83-1.14,1.63-2.31,2-2.92C225.78,158.9,224.91,160.13,223.74,161.65Z"/><path class="cls-1" d="M216.27,172.25c.63-.92,1.54-2.12.77-1.34-3.48,4.28-5.8,6.68-8,9.14C211.57,177.58,214,175,216.27,172.25Z"/><path class="cls-1" d="M489.34,21.94a29.54,29.54,0,0,1,5.61,8.8,33.08,33.08,0,0,1,2.46,12.08,40.5,40.5,0,0,1-1.74,11.87,54.27,54.27,0,0,1-4.87,11.07c-1.1,1.73-2.21,3.49-3.45,5.16s-2.63,3.38-3.86,4.73c1.38-1.35,2.93-3.13,4.35-4.84.72-.86,1.34-1.79,2-2.68a31.6,31.6,0,0,0,1.89-2.73,47.55,47.55,0,0,0,5.43-11.74,37.88,37.88,0,0,0,1.71-12.29,32.36,32.36,0,0,0-2.72-11.67,31.44,31.44,0,0,0-6.65-9.3,32.25,32.25,0,0,0-9-6,42.31,42.31,0,0,0-19.64-3.5c7.11.06,14.24,1.43,20.3,4.8A32.69,32.69,0,0,1,489.34,21.94Z"/><path class="cls-1" d="M431.33,109.18a90.16,90.16,0,0,0,40.88-19.81,122.26,122.26,0,0,1-37.32,18.24Z"/><path class="cls-1" d="M459,96A84.86,84.86,0,0,0,468.13,90c2.81-2.15,5.46-4.41,8-6.7l3.6-3.61,1.76-1.8,2-2.27-1.2,1.23c-.4.41-.82.85-1.14,1.12l-2.07,1.87L475,83.58c-1.44,1.14-2.87,2.28-4.3,3.4l-2.14,1.7-2.21,1.53-4.39,3c-1.47,1-3,1.82-4.44,2.73s-2.92,1.83-4.4,2.6l-4.38,2.33c1.83-.75,3.6-1.51,5.34-2.29S457.4,96.85,459,96Z"/><path class="cls-1" d="M318.87,132.6c4-11.11-6.27,10.13,0,0Z"/><path class="cls-1" d="M342.56,76.86l1-1c.92-1,1.92-2,2.85-3C345.07,74.19,343.75,75.41,342.56,76.86Z"/><path class="cls-1" d="M451,29.19l-7.7,2.35c-7.49,2.37-14.86,5-21.92,7.81,7.33-2.79,14.85-5.32,22.13-7.77a80,80,0,0,1,9.92-2.71,56.33,56.33,0,0,1,8.11-1.07,33,33,0,0,0-4.48-.39Z"/><path class="cls-1" d="M455.66,8.49l2.12-.09a56.6,56.6,0,0,1,8.44.2,41.54,41.54,0,0,1,15.85,4.61,32.56,32.56,0,0,1,12.13,10.7,30.9,30.9,0,0,1,5.35,15.54c.86,11.18-3,21.58-9.18,30.5a38.77,38.77,0,0,1-2.42,3.3c-.83,1.06-1.75,2.21-2.54,3.06L483,79.09l-2.08,2.14-4.17,4.21-4.5,3.93c1.86-1.42,3.78-2.73,5.56-4.25l5.3-4.61c.4-.32,1-.92,1.5-1.44l1.59-1.59c1-1,2.21-2.31,3.3-3.57a49.2,49.2,0,0,0,3.11-4c.49-.68,1-1.34,1.48-2l1.3-2.13A44.86,44.86,0,0,0,502,40.94a36.63,36.63,0,0,0-2.77-11.88,35.06,35.06,0,0,0-6.6-9.79A38.59,38.59,0,0,0,472.45,8.76l-2.85-.51L466.68,8c-1.93-.21-3.9-.08-5.82-.13-1.91.12-4,.23-5.72.46l-2.5.42c-.85.14-1.67.29-2.36.47,1-.22,2.34-.35,3.54-.51Z"/><path class="cls-1" d="M380.35,61l.63-.34a176,176,0,0,1,16-9.38,194.52,194.52,0,0,1,24.35-11.88C405.49,45.33,390.68,53.05,380.35,61Z"/><path class="cls-1" d="M431.68,47.39,439,45.21l3.22-1.62c-1.78.47-3.55,1-5.28,1.46Z"/><path class="cls-1" d="M455.68,61.54a50,50,0,0,0,4.44-3.62l2.12-1.9c.34-.3.75-.65,1-.92l.65-.72.67-.69.42-.55a12.14,12.14,0,0,0,.78-1.1c2-2.9,3-6.49,1.57-9.43a6.55,6.55,0,0,0-3.24-3.16,9.72,9.72,0,0,0-4.16-.87,12.81,12.81,0,0,0-2,.15l-2.43.44c-.46.07-1.36.28-2.07.42s-1.5.32-2.27.52c-1.54.35-3,.87-4.68,1.38l-4.27,2.1,3.9-1.07,1-.27.79-.18,1.55-.37c1-.27,2-.39,3-.61l2.87-.42,1.77-.18c.32,0,.63-.07,1-.08a11.12,11.12,0,0,1,2,.05A7.73,7.73,0,0,1,464.16,42a6.51,6.51,0,0,1,2.33,4.18,11.37,11.37,0,0,1,.18,2.47,4.85,4.85,0,0,1-.82,2.54,23.16,23.16,0,0,1-1.79,2.25l-.71.72-.35.37-.17.19-.28.24-2.27,2L458,59l-2.37,1.82-2.35,1.84c-.79.61-1.64,1.12-2.46,1.68a102.48,102.48,0,0,1-21.25,11.2,97.47,97.47,0,0,0,20.81-10.25l.55-.36,2.42-1.59Z"/><path class="cls-1" d="M454,167.92c-.45.13-.86.27-1.23.4l1.27-.21A.65.65,0,0,0,454,167.92Z"/><path class="cls-1" d="M452.19,171l.3-.1a.45.45,0,0,1-.1-.14Z"/><path class="cls-1" d="M461.1,165.45a.58.58,0,0,0,.23-.3c0-.11.08-.2-.26-.43a9.78,9.78,0,0,0-3.11-1.33,21.59,21.59,0,0,0-2.37.59,9.65,9.65,0,0,0-2.2.78,9.9,9.9,0,0,0-2.76,1.75c-.52.52-.68.91-.24,1.12a3.2,3.2,0,0,0,1.12.18l2.49.1c-.15-.73-.85-1.38-.19-2.23a12,12,0,0,1,2,0,8.62,8.62,0,0,1,2.23.27c1.38,0,.19-.79.25-1.19C459.69,165.06,461,165.63,461.1,165.45Z"/><path class="cls-1" d="M452.64,168.37a6.19,6.19,0,0,0-2,1.15,4.1,4.1,0,0,0-1.14,1.3,20.83,20.83,0,0,1,2.89-1C452.66,169.32,453.1,168.76,452.64,168.37Z"/><path class="cls-1" d="M469.44,183.1a17.75,17.75,0,0,0-4.51-7.44c-.09.08-.17.09-.4-.4l.4.4c.09-.08.18-.22.41-.07A28.44,28.44,0,0,0,460,172c-.34.06-.67.13-1,.21a21.27,21.27,0,0,1,6.15,4.64A28.93,28.93,0,0,1,469.44,183.1Z"/><path class="cls-1" d="M458.19,173.13l-.44-.22C458.06,173.28,458.13,173.24,458.19,173.13Z"/><path class="cls-1" d="M412.79,259.61l-1.32.11c5.45,1.33,10.65-.76,14.62-3.26C421.83,258.56,417.2,259.9,412.79,259.61Z"/><path class="cls-1" d="M427.56,254.28a20.37,20.37,0,0,0,2-1.67c-.79.51-1.26.94-2.41,1.58s-2,1.2-3.07,1.73a35.85,35.85,0,0,1-6.25,2.57,19.51,19.51,0,0,0,6.85-2.39A29.56,29.56,0,0,0,427.56,254.28Z"/><path class="cls-1" d="M453.92,201a33.47,33.47,0,0,1,.53-3.54l-.62-1.35-.1.27a33.12,33.12,0,0,1-1.23,5.39,21,21,0,0,0-.26,2.36C452.85,203.1,453.43,202.05,453.92,201Z"/><path class="cls-1" d="M455.19,197.73c-.1-.66-.48-1.38-.74-.27C455.12,199,455.28,198.4,455.19,197.73Z"/><path class="cls-1" d="M458.9,216.05c.2-.41.4-.79.59-1.19l-.17.29Z"/><path class="cls-1" d="M438.78,231.48a48.86,48.86,0,0,0,3.48-4.14c-2.35,2.83-4.86,5.53-6.78,8,.34-.3.81-.45,1.16-.75A10.7,10.7,0,0,1,438.78,231.48Z"/><path class="cls-1" d="M462.61,202.44a38.63,38.63,0,0,0,.84-4.7c.56-3.66,1.05-7.56.42-11.13a11.59,11.59,0,0,0-5.39-8.29,2.71,2.71,0,0,0-1,1.53,12.2,12.2,0,0,1,4.26,7.69,22.07,22.07,0,0,1-1.58,11v.2c0,3.74-3,8.9-4.6,13.3-1.45,4.6-3.93,8.65-6.18,12.95a135.33,135.33,0,0,0,11.21-16.67C461.33,206.4,462,204.43,462.61,202.44Z"/><path class="cls-1" d="M459.84,210.2l.68-1.19c.2-.5.37-1,.55-1.5l-.48.82Z"/><path class="cls-1" d="M448.38,218.23l-.11.13q-1.18,1.8-2.49,3.6a53.21,53.21,0,0,1-3.52,5.38A42.5,42.5,0,0,0,448.38,218.23Z"/><path class="cls-1" d="M436.9,224.29l-1.2,1.23-.31.82.89-.84Z"/><path class="cls-1" d="M420.37,241.26c.42-.29.75-.57,1.16-.89.66-.47,1.4-1,2.08-1.55,1.39-1.09,2.74-2.27,4-3.5A86.91,86.91,0,0,0,435,227.4c.14-.35.29-.7.43-1.06a119.28,119.28,0,0,0-9.62,9.8,12.76,12.76,0,0,1-2,2.27L421.5,240l-1.18,1a11.18,11.18,0,0,1-2.82,1.7,9.36,9.36,0,0,0,2.8-1.37Z"/><path class="cls-1" d="M37.18,217l.17.07.22,0,0,0Z"/><path class="cls-1" d="M40.27,217.85c.23.08.45.16.8.25l.15,0-.46-.15C40.45,217.87,40.27,217.82,40.27,217.85Z"/><path class="cls-1" d="M41.22,218.14l.19.05-.13,0h-.06Z"/><path class="cls-1" d="M10.19,160.92c.6-2.44,1.38-4.82,2.18-7.16A72.72,72.72,0,0,1,15.24,147c.07-.14.07-.28,0-.31s-.2.06-.26.2a71.46,71.46,0,0,0-2.91,6.77c-.82,2.34-1.61,4.72-2.22,7.17,0,.17,0,.31.11.35S10.15,161.08,10.19,160.92Z"/><path class="cls-1" d="M30.46,130.93c0,.1,0,.12.09,0a.83.83,0,0,0,.16-.31c0-.09,0-.11-.08,0A.8.8,0,0,0,30.46,130.93Z"/><path class="cls-1" d="M97.47,279.86l.14.06L98,280h0Z"/><path class="cls-1" d="M43.07,227.25c.13.18.25.37.37.55-.5-.77-1-1.56-1.49-2.36Z"/><path class="cls-1" d="M42,225.44c-.88-1.46-1.69-2.83-2.3-3.83C40.41,222.92,41.18,224.19,42,225.44Z"/><path class="cls-1" d="M281.65,63.65c.33-1.59.32-1.84,0,0Z"/><path class="cls-1" d="M44.13,228.83c-.22-.34-.46-.68-.69-1Z"/><path class="cls-1" d="M380.52,248.11a24.08,24.08,0,0,1,1.91-2.37c0-.33.12-.73.2-1.28l-.2.18-1.58,1.76-1.68,1.69a11.52,11.52,0,0,0-1.1,1.57C378.89,249.16,379.74,248.69,380.52,248.11Z"/><path class="cls-1" d="M382.43,245.74c-.35,2.79,1.49-1.43,0,0Z"/><path class="cls-1" d="M378.39,261.14l.89-.62-.24.13Z"/><path class="cls-1" d="M359.56,258.57a9,9,0,0,0,3.41.71,15,15,0,0,1-6.43-2.23c.23.21.33.6.59.79A9.14,9.14,0,0,1,359.56,258.57Z"/><path class="cls-1" d="M370.32,266.68a22.38,22.38,0,0,1-13.18.36,18.71,18.71,0,0,1-4-1.67,18.46,18.46,0,0,0,8.06,3.1,22.64,22.64,0,0,0,7.88-.34,35.84,35.84,0,0,0,10.68-4.8,51.25,51.25,0,0,0,8.56-7c.58-.59,1.16-1.17,1.74-1.73a57.61,57.61,0,0,1-17.09,10.07,28.91,28.91,0,0,1-9.89,1.82,20.14,20.14,0,0,1-10.17-2.8,4.68,4.68,0,0,1-.71-.44,17.89,17.89,0,0,0,9.07,4.1A23,23,0,0,0,370.32,266.68Z"/><path class="cls-1" d="M382.28,256.69l1-.86-.67.39c-.4.37-.82.72-1.24,1C381.65,257.08,382,256.9,382.28,256.69Z"/><path class="cls-1" d="M370.27,257.56l-.12,0a19.54,19.54,0,0,1-2.95.88,12,12,0,0,1-4.23.82A12.5,12.5,0,0,0,370.27,257.56Z"/><path class="cls-1" d="M363,254c-.19,0-.44-.18-.6-.2l-.39.21a4,4,0,0,1,.44.17A3.51,3.51,0,0,0,363,254Z"/></svg>