<svg id="svg" xmlns="http://www.w3.org/2000/svg" xmlns:xlink="http://www.w3.org/1999/xlink" width="400" height="405.6338028169014" viewBox="0, 0, 400,405.6338028169014"><g id="svgg"><path id="path0" d="M184.499 22.799 C 181.804 22.988,178.259 23.419,176.621 23.758 C 174.984 24.096,172.419 24.494,170.922 24.641 C 169.425 24.789,167.694 25.165,167.075 25.478 C 166.457 25.790,164.501 26.301,162.729 26.612 C 160.957 26.924,159.303 27.344,159.054 27.545 C 158.804 27.746,157.520 28.137,156.200 28.413 C 154.880 28.690,153.406 29.156,152.925 29.450 C 152.444 29.745,151.187 30.179,150.132 30.415 C 149.076 30.652,147.940 31.091,147.606 31.391 C 147.273 31.692,146.460 32.061,145.800 32.212 C 144.350 32.544,132.523 38.389,130.000 40.020 C 129.010 40.660,127.835 41.348,127.389 41.548 C 126.489 41.953,118.881 47.157,117.000 48.656 C 116.340 49.182,115.620 49.744,115.400 49.906 C 112.444 52.076,111.394 52.910,109.017 54.979 C 105.060 58.421,96.830 66.638,94.972 69.000 C 94.108 70.100,93.309 71.090,93.198 71.200 C 92.742 71.651,89.343 76.270,88.600 77.449 C 86.852 80.222,84.416 83.856,83.630 84.863 C 83.173 85.448,82.800 86.099,82.800 86.309 C 82.800 86.520,82.397 87.204,81.905 87.830 C 80.470 89.654,74.995 100.301,73.589 104.000 C 73.297 104.770,72.820 105.755,72.529 106.189 C 72.238 106.623,72.000 107.304,72.000 107.702 C 72.000 108.101,71.550 109.315,71.000 110.400 C 70.450 111.485,69.994 112.784,69.987 113.287 C 69.981 113.789,69.532 115.100,68.991 116.200 C 68.450 117.300,68.002 118.830,67.995 119.600 C 67.988 120.370,67.616 121.809,67.167 122.798 C 66.719 123.786,66.255 125.766,66.138 127.198 C 66.020 128.629,65.594 131.060,65.190 132.600 C 63.326 139.714,63.355 159.615,65.236 163.757 C 65.647 164.660,65.986 165.770,65.991 166.222 C 65.996 166.675,66.450 167.655,67.000 168.400 C 67.550 169.145,68.000 169.959,68.000 170.208 C 68.000 170.457,68.450 171.083,69.000 171.600 C 69.550 172.117,70.000 172.694,70.000 172.883 C 70.000 173.335,72.672 176.000,73.125 176.000 C 73.318 176.000,73.790 176.347,74.173 176.770 C 76.588 179.439,88.620 183.153,97.600 184.003 C 99.910 184.221,103.150 184.657,104.800 184.971 C 106.450 185.285,108.970 185.652,110.400 185.786 C 113.848 186.109,118.661 187.392,124.161 189.453 C 132.191 192.463,138.295 200.965,139.629 211.000 C 140.264 215.778,139.337 230.823,138.220 233.872 C 138.125 234.131,137.762 236.111,137.414 238.272 C 137.065 240.432,136.560 243.370,136.290 244.800 C 134.697 253.251,135.854 264.519,138.863 269.850 C 142.381 276.084,152.808 282.744,162.271 284.802 C 163.190 285.001,164.597 285.439,165.398 285.773 C 166.199 286.108,168.309 286.564,170.087 286.787 C 171.864 287.010,174.417 287.451,175.759 287.767 C 179.756 288.708,181.683 288.811,194.833 288.784 C 207.474 288.758,210.646 288.560,215.800 287.475 C 217.340 287.151,219.680 286.700,221.000 286.472 C 223.706 286.006,227.904 284.940,230.000 284.188 C 230.770 283.911,232.929 283.206,234.797 282.620 C 240.741 280.755,253.495 275.407,256.400 273.561 C 256.730 273.352,257.810 272.799,258.800 272.333 C 259.790 271.867,260.696 271.339,260.814 271.159 C 260.932 270.978,261.684 270.557,262.487 270.222 C 263.289 269.886,264.060 269.427,264.200 269.200 C 264.340 268.973,265.072 268.530,265.827 268.214 C 266.582 267.899,267.200 267.473,267.200 267.269 C 267.200 267.064,267.777 266.658,268.483 266.366 C 269.188 266.073,270.043 265.597,270.383 265.307 C 270.722 265.017,271.521 264.334,272.158 263.790 C 272.796 263.245,273.437 262.800,273.583 262.800 C 273.729 262.800,274.204 262.485,274.638 262.100 C 275.073 261.715,276.232 260.781,277.214 260.025 C 281.569 256.672,293.238 245.203,296.309 241.257 C 297.569 239.638,298.780 238.108,299.000 237.857 C 300.507 236.137,302.247 233.594,306.021 227.600 C 310.161 221.023,310.907 219.770,312.286 217.075 C 313.095 215.494,313.970 213.930,314.231 213.600 C 314.492 213.270,314.835 212.550,314.993 212.000 C 315.316 210.878,316.875 207.323,317.976 205.200 C 318.375 204.430,318.829 203.036,318.986 202.102 C 319.142 201.168,319.432 200.304,319.630 200.182 C 319.828 200.059,320.272 198.933,320.618 197.680 C 320.963 196.426,321.506 194.770,321.825 194.000 C 322.143 193.230,322.662 191.340,322.977 189.800 C 323.292 188.260,323.832 186.016,324.175 184.813 C 324.519 183.610,324.808 181.810,324.818 180.813 C 324.827 179.816,325.095 178.280,325.413 177.400 C 327.339 172.063,327.449 137.056,325.551 133.509 C 325.327 133.090,324.970 131.057,324.759 128.992 C 324.548 126.927,324.126 124.643,323.823 123.916 C 323.519 123.189,323.062 121.426,322.806 119.997 C 322.551 118.569,322.109 117.038,321.825 116.596 C 321.540 116.154,321.096 114.806,320.838 113.601 C 320.579 112.396,320.129 111.045,319.836 110.599 C 319.544 110.153,319.169 109.161,319.003 108.394 C 318.837 107.627,318.274 106.191,317.751 105.203 C 317.228 104.215,316.800 103.177,316.800 102.896 C 316.800 102.462,315.730 100.090,314.373 97.515 C 314.174 97.138,313.139 95.158,312.072 93.115 C 309.027 87.282,301.352 75.591,297.238 70.520 C 296.667 69.816,295.840 68.761,295.400 68.177 C 294.633 67.158,284.442 56.841,283.200 55.827 C 282.870 55.557,281.423 54.361,279.984 53.168 C 278.546 51.976,276.758 50.550,276.012 50.000 C 275.267 49.450,273.807 48.336,272.770 47.524 C 268.390 44.096,259.703 38.786,253.600 35.807 C 247.903 33.025,246.594 32.438,245.100 31.989 C 244.275 31.741,243.600 31.388,243.600 31.204 C 243.600 31.021,242.835 30.747,241.900 30.597 C 240.965 30.446,239.480 29.992,238.600 29.587 C 237.720 29.181,236.010 28.635,234.800 28.373 C 233.590 28.110,232.404 27.740,232.163 27.551 C 231.923 27.362,230.220 26.921,228.378 26.572 C 226.536 26.223,224.703 25.762,224.304 25.548 C 223.669 25.209,218.414 24.298,210.600 23.173 C 206.982 22.652,190.065 22.410,184.499 22.799 M172.552 51.422 C 177.520 53.205,184.800 59.711,184.800 62.367 C 184.800 62.580,185.192 63.419,185.672 64.232 C 186.151 65.044,186.680 66.450,186.848 67.355 C 187.015 68.260,187.433 69.984,187.776 71.187 C 188.571 73.973,188.571 79.794,187.777 83.200 C 187.443 84.630,187.002 86.695,186.795 87.788 C 186.589 88.881,186.056 90.269,185.610 90.872 C 185.165 91.474,184.800 92.267,184.800 92.632 C 184.800 94.909,178.642 102.295,174.416 105.089 C 154.610 118.178,133.624 90.403,145.454 66.758 C 146.556 64.557,146.835 64.102,149.226 60.600 C 150.860 58.208,154.136 54.980,155.800 54.122 C 156.460 53.782,157.287 53.253,157.637 52.947 C 160.419 50.515,167.894 49.751,172.552 51.422 M256.200 67.993 C 261.957 69.280,264.663 70.488,268.077 73.294 C 269.879 74.774,273.200 79.132,273.200 80.015 C 273.200 80.249,273.498 81.016,273.863 81.720 C 275.281 84.462,275.269 90.943,273.839 94.130 C 273.526 94.828,273.064 96.061,272.814 96.868 C 272.564 97.675,272.098 98.552,271.780 98.817 C 271.461 99.082,271.200 99.503,271.200 99.753 C 271.200 100.003,270.750 100.693,270.200 101.287 C 269.650 101.880,269.197 102.508,269.194 102.683 C 269.187 103.072,265.316 106.625,262.600 108.735 C 260.722 110.194,255.005 113.200,254.109 113.200 C 253.885 113.200,252.824 113.605,251.751 114.100 C 248.883 115.423,234.819 115.471,232.000 114.167 C 225.730 111.267,224.662 110.521,221.740 107.000 C 217.252 101.592,216.662 89.760,220.651 85.169 C 220.953 84.821,221.200 84.388,221.200 84.205 C 221.200 80.676,234.651 70.518,241.082 69.190 C 242.137 68.972,243.900 68.537,245.000 68.224 C 247.249 67.583,253.767 67.449,256.200 67.993 M114.600 118.877 C 115.260 119.222,116.430 119.625,117.200 119.774 C 118.401 120.007,122.029 121.494,123.446 122.335 C 127.880 124.967,131.945 128.501,134.506 131.952 C 141.827 141.819,142.919 151.261,137.799 160.430 C 136.365 162.998,131.356 166.727,128.187 167.586 C 127.094 167.882,125.989 168.286,125.732 168.485 C 124.263 169.615,110.690 168.017,108.647 166.472 C 108.401 166.286,107.570 165.884,106.800 165.579 C 102.074 163.705,91.600 154.030,91.600 151.538 C 91.600 151.372,91.150 150.572,90.600 149.762 C 90.050 148.951,89.600 147.964,89.600 147.567 C 89.600 147.170,89.195 146.160,88.700 145.323 C 87.067 142.559,87.131 133.810,88.812 129.952 C 90.897 125.171,95.434 120.658,99.000 119.820 C 99.660 119.665,100.740 119.298,101.400 119.005 C 102.060 118.712,102.870 118.369,103.200 118.244 C 104.506 117.748,113.382 118.241,114.600 118.877 M275.498 143.165 C 276.764 143.586,278.520 144.052,279.400 144.199 C 280.280 144.347,281.540 144.792,282.200 145.188 C 282.860 145.584,283.850 146.042,284.400 146.205 C 284.950 146.368,285.670 146.757,286.000 147.070 C 286.330 147.383,287.680 148.335,289.000 149.186 C 293.743 152.245,301.189 161.578,301.202 164.483 C 301.204 164.767,301.471 165.511,301.797 166.135 C 304.193 170.729,303.191 180.834,299.920 185.064 C 298.573 186.804,294.711 190.400,294.187 190.400 C 293.864 190.400,293.600 190.562,293.600 190.759 C 293.600 190.957,292.205 191.632,290.500 192.259 C 277.639 196.991,260.917 188.947,252.544 174.000 C 247.079 164.244,249.697 150.287,257.775 146.110 C 258.427 145.772,259.200 145.257,259.493 144.964 C 259.786 144.671,260.693 144.306,261.509 144.153 C 262.325 144.000,263.714 143.547,264.596 143.146 C 266.845 142.125,272.398 142.134,275.498 143.165 M170.505 169.569 C 173.336 170.719,175.724 172.044,177.145 173.252 C 177.444 173.506,178.518 174.348,179.532 175.121 C 191.226 184.048,195.310 200.687,187.759 208.642 C 183.340 213.298,174.493 214.721,167.844 211.847 C 167.160 211.551,165.835 210.987,164.900 210.594 C 163.965 210.200,163.200 209.726,163.200 209.539 C 163.200 209.353,162.959 209.200,162.664 209.200 C 160.477 209.200,149.600 197.753,149.600 195.452 C 149.600 195.238,149.308 194.740,148.951 194.346 C 148.594 193.951,148.065 192.677,147.775 191.514 C 147.486 190.351,146.976 188.680,146.642 187.800 C 145.612 185.083,146.028 178.000,147.219 178.000 C 147.428 178.000,147.600 177.631,147.600 177.180 C 147.600 176.152,148.690 174.000,149.210 174.000 C 149.425 174.000,149.600 173.770,149.600 173.489 C 149.600 172.961,151.200 171.424,153.329 169.908 C 156.650 167.543,165.106 167.377,170.505 169.569 M231.346 203.328 C 231.822 203.640,232.839 204.028,233.606 204.191 C 234.373 204.354,235.573 204.918,236.273 205.444 C 236.974 205.970,237.656 206.400,237.791 206.400 C 238.205 206.400,242.800 211.082,242.800 211.504 C 242.800 211.723,243.086 212.139,243.435 212.429 C 249.665 217.600,249.834 239.114,243.711 247.438 C 243.210 248.119,242.800 248.856,242.800 249.077 C 242.800 249.297,242.485 249.857,242.100 250.321 C 241.715 250.784,240.684 252.037,239.808 253.104 C 237.450 255.978,233.792 258.679,231.016 259.595 C 230.195 259.866,229.045 260.337,228.461 260.641 C 227.020 261.393,220.180 261.393,218.739 260.641 C 218.155 260.337,216.992 259.861,216.154 259.585 C 213.682 258.769,209.350 255.276,207.421 252.543 C 206.250 250.884,204.003 246.290,204.001 245.551 C 204.001 245.194,203.603 244.024,203.118 242.951 C 201.830 240.102,201.789 227.989,203.058 225.186 C 203.509 224.189,203.998 222.733,204.145 221.952 C 205.007 217.360,211.429 208.521,215.345 206.539 C 216.035 206.189,216.870 205.669,217.200 205.382 C 219.841 203.086,228.957 201.762,231.346 203.328 M159.934 317.846 C 158.851 318.171,158.750 318.933,158.391 329.400 C 158.202 334.900,157.768 341.233,157.427 343.474 C 156.705 348.216,155.853 365.781,156.240 367.932 C 156.704 370.512,158.071 371.421,162.106 371.834 C 165.788 372.212,165.770 372.252,166.779 361.200 C 168.157 346.099,169.053 343.316,173.222 341.189 C 179.574 337.948,183.119 342.718,181.406 352.200 C 180.513 357.144,180.577 369.281,181.500 370.087 C 182.731 371.160,183.739 371.511,186.410 371.796 C 190.451 372.226,190.742 371.851,191.205 365.600 C 191.409 362.850,191.792 358.080,192.057 355.000 C 193.060 343.322,192.860 339.369,191.084 335.831 C 188.564 330.809,177.061 330.006,172.830 334.557 C 170.081 337.514,169.192 335.720,169.307 327.451 L 169.400 320.821 167.936 319.353 C 166.473 317.887,162.373 317.114,159.934 317.846 M116.470 320.853 C 115.169 322.244,114.547 325.282,115.207 327.018 C 115.575 327.987,115.643 328.000,120.515 328.000 C 126.685 328.000,127.437 328.432,127.057 331.758 C 126.929 332.881,126.633 338.210,126.400 343.600 C 126.166 348.990,125.785 354.660,125.552 356.200 C 123.769 367.984,125.020 371.243,131.560 371.851 C 136.198 372.282,136.107 372.582,137.213 353.200 C 137.659 345.390,138.192 337.200,138.398 335.000 C 138.603 332.800,138.778 330.682,138.786 330.294 C 138.815 328.854,141.110 328.004,145.000 327.993 C 150.343 327.977,151.776 327.230,152.398 324.136 C 152.656 322.851,152.955 321.419,153.063 320.954 C 153.365 319.654,152.785 319.611,134.520 319.605 L 117.641 319.600 116.470 320.853 M215.441 332.591 C 206.050 336.001,201.368 343.630,201.442 355.400 C 201.518 367.469,208.541 373.064,221.763 371.587 C 230.922 370.565,235.623 364.274,230.006 360.557 C 228.163 359.337,227.422 359.479,225.181 361.486 C 221.273 364.984,216.042 363.999,213.657 359.316 C 211.792 355.653,212.455 354.718,217.400 354.032 C 222.940 353.265,227.411 352.330,228.000 351.817 C 228.330 351.530,229.008 351.170,229.506 351.018 C 233.444 349.818,237.812 340.215,235.165 338.578 C 234.964 338.454,234.800 338.004,234.800 337.579 C 234.800 336.522,231.547 333.299,230.141 332.963 C 229.513 332.813,228.747 332.490,228.439 332.245 C 227.200 331.263,218.457 331.496,215.441 332.591 M252.800 332.555 C 249.313 333.750,247.874 334.550,246.425 336.100 C 242.253 340.559,243.912 346.800,249.269 346.800 L 251.588 346.800 252.779 344.442 C 254.261 341.505,255.895 340.388,258.647 340.429 C 262.339 340.485,263.489 341.791,263.554 346.000 C 263.604 349.255,263.474 349.351,258.642 349.650 C 245.972 350.435,239.426 356.143,240.582 365.397 C 241.437 372.235,251.763 374.142,259.001 368.799 C 262.141 366.481,262.168 366.475,263.052 367.823 C 266.556 373.171,273.565 373.342,276.606 368.154 C 278.189 365.453,278.037 364.303,275.826 362.245 L 274.000 360.544 274.032 355.772 C 274.049 353.147,274.191 349.470,274.347 347.600 C 274.601 344.548,274.372 340.447,273.819 338.162 C 272.544 332.892,260.887 329.783,252.800 332.555 M222.649 341.164 C 224.127 342.066,224.695 344.115,223.930 345.793 C 222.456 349.030,213.200 350.777,213.200 347.819 C 213.200 342.615,218.689 338.750,222.649 341.164 M261.774 354.790 C 264.287 355.745,261.767 361.264,257.916 363.239 C 253.794 365.353,249.656 360.979,252.435 357.446 C 254.217 355.181,259.128 353.784,261.774 354.790 " stroke="none" fill="#36272f" fill-rule="evenodd"></path><path id="path1" d="M0.000 202.800 L 0.000 405.600 200.000 405.600 L 400.000 405.600 400.000 202.800 L 400.000 0.000 200.000 0.000 L 0.000 0.000 0.000 202.800 M210.600 21.593 C 215.915 22.221,225.110 23.988,227.400 24.821 C 228.500 25.221,230.354 25.740,231.520 25.974 C 232.686 26.208,234.132 26.655,234.734 26.966 C 235.335 27.277,236.541 27.657,237.414 27.810 C 238.286 27.963,239.580 28.419,240.288 28.824 C 240.997 29.228,242.257 29.681,243.088 29.830 C 243.920 29.979,244.870 30.331,245.200 30.611 C 245.530 30.892,246.610 31.350,247.600 31.630 C 248.590 31.909,249.670 32.356,250.000 32.622 C 250.330 32.888,251.050 33.238,251.600 33.400 C 252.150 33.562,253.410 34.113,254.400 34.625 C 255.390 35.136,256.470 35.667,256.800 35.804 C 257.130 35.941,258.300 36.577,259.400 37.218 C 260.500 37.858,262.030 38.697,262.800 39.082 C 263.570 39.467,264.709 40.191,265.331 40.691 C 265.953 41.191,266.627 41.600,266.829 41.600 C 267.157 41.600,275.506 47.420,276.000 47.993 C 276.110 48.121,276.984 48.792,277.942 49.486 C 281.804 52.279,295.600 65.604,295.600 66.541 C 295.600 66.647,296.275 67.451,297.100 68.326 C 301.867 73.381,311.006 87.152,314.669 94.800 C 315.354 96.230,316.384 98.380,316.957 99.579 C 317.531 100.777,318.000 102.023,318.000 102.347 C 318.000 102.672,318.243 103.221,318.539 103.569 C 318.836 103.916,319.313 105.100,319.600 106.200 C 319.887 107.300,320.345 108.470,320.617 108.800 C 320.890 109.130,321.238 110.210,321.390 111.200 C 321.543 112.190,321.991 113.638,322.385 114.418 C 322.779 115.199,323.236 116.639,323.400 117.618 C 323.564 118.598,324.011 120.210,324.393 121.200 C 324.776 122.190,325.215 123.990,325.370 125.200 C 325.524 126.410,325.989 128.750,326.403 130.400 C 326.817 132.050,327.269 135.020,327.408 137.000 C 327.547 138.980,327.916 142.130,328.229 144.000 C 328.898 148.000,329.000 161.391,328.389 165.000 C 328.166 166.320,327.725 170.020,327.411 173.223 C 327.096 176.426,326.636 179.576,326.387 180.223 C 326.139 180.870,325.677 182.990,325.361 184.934 C 325.045 186.877,324.540 188.947,324.240 189.534 C 323.939 190.120,323.561 191.581,323.398 192.781 C 323.236 193.981,322.776 195.601,322.377 196.381 C 321.978 197.161,321.523 198.510,321.367 199.377 C 321.210 200.245,320.766 201.505,320.380 202.177 C 319.994 202.850,319.550 204.030,319.394 204.800 C 319.238 205.570,318.888 206.470,318.616 206.800 C 318.344 207.130,317.892 208.252,317.611 209.292 C 317.330 210.333,316.853 211.390,316.550 211.641 C 316.248 211.892,316.000 212.325,316.000 212.602 C 316.000 214.178,309.980 224.780,304.871 232.200 C 302.112 236.208,300.773 237.959,297.990 241.200 C 297.517 241.750,296.651 242.816,296.065 243.568 C 292.351 248.337,282.326 258.145,278.387 260.864 C 276.187 262.382,271.857 265.541,271.200 266.108 C 270.870 266.393,269.880 267.086,269.000 267.649 C 268.120 268.211,266.878 269.016,266.240 269.436 C 265.603 269.856,264.613 270.505,264.040 270.879 C 259.770 273.664,249.346 279.017,245.200 280.554 C 243.550 281.166,241.187 282.102,239.950 282.633 C 238.712 283.165,237.402 283.600,237.038 283.600 C 236.674 283.600,235.307 284.050,234.000 284.600 C 232.693 285.150,231.254 285.600,230.802 285.600 C 230.350 285.600,228.950 285.967,227.690 286.415 C 226.431 286.863,224.015 287.407,222.323 287.624 C 220.631 287.841,218.487 288.287,217.559 288.614 C 211.929 290.601,177.633 290.587,171.990 288.596 C 171.090 288.279,168.969 287.840,167.277 287.622 C 165.585 287.403,163.253 286.859,162.096 286.412 C 160.938 285.966,159.701 285.600,159.346 285.600 C 158.012 285.600,147.528 280.705,145.314 279.049 C 139.975 275.056,136.140 269.440,134.762 263.600 C 133.061 256.389,133.346 251.794,136.724 232.000 C 139.604 215.127,138.526 205.449,132.957 198.163 C 130.935 195.518,126.141 191.607,124.909 191.598 C 124.739 191.596,124.082 191.325,123.449 190.995 C 120.330 189.368,112.259 187.488,104.494 186.580 C 101.783 186.263,98.267 185.733,96.682 185.402 C 95.097 185.071,93.177 184.801,92.416 184.800 C 90.977 184.800,84.580 183.187,81.800 182.123 C 80.920 181.786,79.544 181.268,78.742 180.972 C 75.263 179.686,68.761 174.248,67.307 171.408 C 66.967 170.743,66.568 170.110,66.421 170.000 C 66.275 169.890,65.916 169.170,65.625 168.400 C 65.334 167.630,64.766 166.280,64.364 165.400 C 63.961 164.520,63.453 162.540,63.234 161.000 C 63.016 159.460,62.659 157.300,62.442 156.200 C 61.944 153.675,61.940 146.095,62.434 143.200 C 62.641 141.990,63.000 139.110,63.232 136.800 C 63.464 134.490,63.926 131.610,64.257 130.400 C 64.588 129.190,65.092 126.745,65.376 124.967 C 65.661 123.190,66.167 121.300,66.501 120.767 C 66.835 120.235,67.231 118.812,67.380 117.604 C 67.530 116.397,67.980 114.867,68.379 114.204 C 68.779 113.542,69.222 112.187,69.363 111.194 C 69.505 110.200,69.975 108.850,70.408 108.194 C 70.841 107.537,71.196 106.666,71.197 106.258 C 71.199 105.850,71.650 104.620,72.200 103.525 C 72.750 102.430,73.200 101.358,73.200 101.143 C 73.200 100.742,77.177 92.681,78.795 89.800 C 82.167 83.800,92.415 69.200,93.255 69.200 C 93.445 69.200,93.600 69.044,93.600 68.853 C 93.600 67.477,108.592 52.906,114.400 48.637 C 116.050 47.424,117.714 46.200,118.098 45.916 C 120.975 43.789,125.826 40.595,128.361 39.158 C 131.545 37.354,139.784 33.195,140.169 33.198 C 140.371 33.199,140.821 32.961,141.169 32.669 C 141.516 32.377,142.610 31.909,143.600 31.630 C 144.590 31.350,145.670 30.892,146.000 30.611 C 146.330 30.331,147.320 29.973,148.200 29.817 C 149.080 29.661,150.340 29.210,151.000 28.815 C 151.660 28.420,152.912 27.970,153.781 27.815 C 154.651 27.660,156.001 27.212,156.781 26.819 C 157.562 26.426,159.072 25.978,160.137 25.823 C 161.202 25.667,162.822 25.220,163.737 24.829 C 164.652 24.438,166.300 23.985,167.400 23.823 C 168.500 23.662,170.840 23.204,172.600 22.807 C 174.360 22.410,178.140 21.881,181.000 21.632 C 183.860 21.382,186.830 21.109,187.600 21.024 C 190.139 20.743,206.929 21.159,210.600 21.593 M163.274 52.461 C 160.501 52.858,157.248 54.463,154.527 56.777 C 152.667 58.359,148.400 63.439,148.400 64.071 C 148.400 64.294,148.052 64.965,147.627 65.563 C 147.201 66.160,146.721 67.178,146.559 67.824 C 146.397 68.471,145.953 69.720,145.573 70.600 C 144.422 73.263,143.791 81.323,144.358 86.123 C 146.680 105.774,164.306 113.161,178.100 100.263 C 179.145 99.286,180.000 98.309,180.000 98.092 C 180.000 97.875,180.285 97.462,180.633 97.173 C 181.476 96.473,182.962 93.666,184.748 89.400 C 187.060 83.877,187.048 68.918,184.729 65.538 C 184.328 64.954,184.000 64.231,184.000 63.931 C 184.000 63.631,183.550 62.723,183.000 61.914 C 182.450 61.105,182.000 60.284,182.000 60.091 C 182.000 59.243,177.461 55.286,175.144 54.114 C 171.430 52.235,168.092 51.770,163.274 52.461 M172.710 57.755 C 174.338 58.576,175.953 59.772,176.800 60.785 C 177.570 61.706,178.578 62.878,179.040 63.388 C 179.502 63.898,180.193 65.100,180.575 66.058 C 180.958 67.016,181.428 67.990,181.620 68.222 C 182.955 69.838,183.094 82.449,181.816 86.011 C 181.462 86.995,180.892 88.595,180.548 89.567 C 180.204 90.539,179.669 91.588,179.359 91.898 C 179.049 92.209,178.602 92.823,178.366 93.263 C 176.798 96.194,173.376 99.401,170.301 100.820 C 162.843 104.263,156.166 102.207,151.377 94.992 C 150.620 93.851,150.000 92.753,150.000 92.553 C 150.000 92.352,149.598 91.471,149.107 90.594 C 147.533 87.786,147.776 74.902,149.481 70.800 C 154.507 58.704,164.006 53.370,172.710 57.755 M162.231 63.716 C 157.926 68.245,157.386 75.410,160.870 81.768 C 161.990 83.811,163.617 89.485,163.830 92.088 C 164.166 96.210,164.245 96.359,165.423 95.089 C 167.713 92.619,167.942 86.711,165.961 81.200 C 162.862 72.575,162.641 69.387,164.807 64.492 C 166.147 61.462,164.769 61.046,162.231 63.716 M245.600 69.785 C 224.685 73.084,212.214 94.905,224.158 107.302 C 226.042 109.257,229.959 111.997,230.881 112.004 C 231.166 112.006,232.363 112.456,233.540 113.004 C 236.829 114.535,245.922 114.488,250.584 112.916 C 261.839 109.120,270.553 101.539,272.327 94.000 C 272.559 93.010,272.954 91.390,273.203 90.400 C 273.977 87.327,272.795 81.413,270.893 78.840 C 270.402 78.176,270.000 77.510,270.000 77.360 C 270.000 76.593,265.660 73.154,263.110 71.902 C 258.137 69.458,252.211 68.742,245.600 69.785 M256.294 73.763 C 265.628 75.766,271.558 85.455,268.135 93.113 C 267.770 93.931,267.253 95.178,266.988 95.884 C 263.487 105.197,246.971 112.489,236.351 109.410 C 210.474 101.908,229.442 68.002,256.294 73.763 M251.052 81.898 C 247.589 83.110,245.155 85.133,241.541 89.802 C 238.570 93.640,235.644 96.333,233.140 97.535 C 230.306 98.896,230.613 99.600,234.039 99.600 C 238.065 99.600,242.254 96.846,247.244 90.920 C 251.564 85.791,255.033 84.000,260.650 84.000 C 263.154 84.000,263.106 83.400,260.504 82.199 C 257.126 80.640,254.851 80.568,251.052 81.898 M101.800 120.144 C 100.040 120.616,98.032 121.407,97.338 121.901 C 96.644 122.396,95.952 122.800,95.799 122.800 C 94.641 122.800,91.316 127.629,89.873 131.408 C 88.060 136.154,88.967 145.052,91.652 148.862 C 92.063 149.446,92.400 150.085,92.400 150.283 C 92.400 151.772,99.765 159.453,103.485 161.844 C 126.467 176.616,148.875 158.493,135.365 136.059 C 132.294 130.959,124.552 123.630,121.141 122.594 C 120.624 122.437,119.570 121.980,118.800 121.579 C 114.810 119.500,106.742 118.819,101.800 120.144 M117.767 125.260 C 119.325 125.937,120.960 126.807,121.400 127.194 C 121.840 127.581,122.417 127.966,122.683 128.049 C 123.642 128.349,128.870 133.329,130.337 135.342 C 143.351 153.191,128.303 170.410,108.426 160.413 C 95.788 154.056,89.226 139.153,95.123 130.200 C 96.343 128.348,98.456 126.010,98.916 126.004 C 99.090 126.002,99.733 125.630,100.346 125.177 C 103.075 123.159,113.038 123.207,117.767 125.260 M98.259 133.672 C 96.511 140.200,104.364 147.749,113.600 148.420 C 116.114 148.602,118.748 149.061,120.163 149.562 C 121.462 150.023,122.777 150.400,123.084 150.400 C 123.391 150.400,124.305 150.850,125.114 151.400 C 128.167 153.474,129.173 151.701,126.575 148.825 C 123.834 145.791,118.963 143.857,111.471 142.829 C 106.385 142.131,103.000 139.652,99.241 133.872 L 98.508 132.745 98.259 133.672 M267.600 144.210 C 267.270 144.275,265.696 144.540,264.101 144.800 C 262.507 145.060,261.100 145.439,260.974 145.642 C 260.848 145.846,260.153 146.260,259.429 146.562 C 253.441 149.064,249.233 161.342,251.943 168.400 C 252.239 169.170,252.621 170.160,252.791 170.600 C 253.672 172.867,255.757 176.779,256.620 177.784 C 257.159 178.411,257.600 179.043,257.600 179.189 C 257.600 180.335,265.670 186.809,269.200 188.494 C 294.055 200.355,311.834 178.409,295.012 156.631 C 292.432 153.292,289.511 150.760,286.020 148.838 C 285.459 148.529,284.903 148.131,284.785 147.952 C 283.569 146.117,271.395 143.467,267.600 144.210 M278.000 149.093 C 278.770 149.415,279.879 149.825,280.465 150.002 C 284.644 151.267,294.800 160.203,294.800 162.616 C 294.800 162.753,295.320 164.066,295.955 165.533 C 298.008 170.270,297.914 177.478,295.758 180.736 C 293.711 183.830,291.065 186.128,288.976 186.629 C 288.329 186.784,287.547 187.110,287.239 187.355 C 286.297 188.101,278.185 187.883,275.400 187.038 C 256.117 181.184,248.019 156.714,263.000 149.571 C 266.209 148.041,274.835 147.766,278.000 149.093 M261.841 158.334 C 261.521 158.851,263.349 162.038,264.578 163.106 C 267.778 165.888,272.827 167.817,278.600 168.463 C 282.783 168.931,285.696 170.407,288.148 173.302 C 288.940 174.236,290.013 175.450,290.534 176.000 C 291.055 176.550,291.608 177.355,291.762 177.789 C 291.971 178.376,292.124 178.446,292.361 178.063 C 292.786 177.375,292.492 175.769,291.563 173.704 C 291.143 172.772,290.800 171.776,290.800 171.491 C 290.800 171.207,290.395 170.450,289.900 169.809 C 286.358 165.227,283.415 163.831,275.141 162.809 C 269.937 162.165,266.813 161.085,263.137 158.658 C 262.532 158.259,261.973 158.119,261.841 158.334 M157.702 169.590 C 156.989 169.759,156.179 170.079,155.902 170.300 C 155.626 170.521,154.953 170.840,154.406 171.008 C 153.206 171.377,150.400 173.572,150.400 174.141 C 150.400 174.365,150.044 174.928,149.608 175.391 C 148.591 176.474,147.443 181.948,147.725 184.371 C 148.208 188.528,148.871 191.291,149.808 193.053 C 150.353 194.079,150.800 195.134,150.800 195.398 C 150.800 195.661,151.160 196.202,151.600 196.600 C 152.040 196.998,152.400 197.491,152.400 197.695 C 152.400 198.749,157.866 204.537,160.572 206.348 C 162.431 207.592,165.633 209.531,166.200 209.755 C 174.781 213.151,181.613 212.671,186.193 208.351 C 190.861 203.948,191.261 194.149,187.082 186.600 C 186.838 186.160,186.340 185.226,185.975 184.524 C 180.963 174.893,166.824 167.424,157.702 169.590 M222.368 204.752 C 220.701 205.127,218.832 205.832,218.214 206.317 C 217.597 206.803,216.846 207.200,216.546 207.200 C 216.246 207.200,215.989 207.335,215.976 207.500 C 215.963 207.665,214.928 208.592,213.676 209.559 C 211.367 211.344,210.304 212.598,208.812 215.300 C 208.356 216.125,207.807 216.800,207.592 216.800 C 207.376 216.800,207.200 217.133,207.200 217.540 C 207.200 217.948,206.779 219.073,206.264 220.041 C 205.749 221.009,205.096 223.061,204.811 224.601 C 204.527 226.140,204.163 227.580,204.001 227.800 C 202.580 229.739,204.030 244.475,205.881 246.896 C 206.093 247.173,206.509 248.030,206.806 248.800 C 207.552 250.734,211.161 255.200,211.977 255.200 C 212.173 255.200,212.393 255.345,212.467 255.523 C 213.687 258.481,222.321 260.548,227.710 259.172 C 232.702 257.897,241.600 251.029,241.600 248.451 C 241.600 248.264,242.028 247.481,242.551 246.711 C 247.610 239.256,247.855 220.521,242.975 214.400 C 242.712 214.070,242.218 213.260,241.879 212.600 C 241.017 210.925,237.579 207.374,236.483 207.026 C 235.983 206.868,235.264 206.419,234.886 206.029 C 233.291 204.384,226.901 203.732,222.368 204.752 M232.166 209.956 C 250.498 218.268,243.519 255.200,223.616 255.200 C 210.595 255.200,203.340 237.351,209.970 221.631 C 211.258 218.577,214.924 213.644,216.782 212.465 C 217.342 212.109,217.890 211.711,218.000 211.579 C 218.360 211.148,221.541 209.607,223.200 209.061 C 225.233 208.391,229.698 208.836,232.166 209.956 M225.162 216.537 C 222.067 219.110,222.518 224.852,226.676 235.800 C 227.396 237.697,227.216 243.676,226.392 245.215 C 223.947 249.783,225.914 250.139,229.548 245.787 C 232.289 242.504,232.446 234.182,229.841 230.207 C 228.639 228.372,227.105 223.221,226.663 219.537 L 226.200 215.674 225.162 216.537 M165.400 316.639 C 170.213 317.440,171.354 319.650,171.129 327.739 C 170.974 333.299,171.142 333.573,173.722 331.967 C 177.619 329.542,185.830 329.540,189.343 331.964 C 194.728 335.679,195.114 338.558,193.247 361.077 C 192.191 373.808,192.163 373.858,186.450 373.535 C 179.663 373.151,179.183 371.818,179.998 355.628 C 180.666 342.354,180.569 342.000,176.288 342.000 C 174.206 342.000,171.200 343.872,171.200 345.168 C 171.200 345.350,170.852 346.286,170.427 347.249 C 169.661 348.982,169.301 351.738,168.391 362.800 C 167.546 373.078,167.275 373.600,162.790 373.600 C 154.879 373.600,153.676 370.575,155.153 354.400 C 155.632 349.153,156.577 335.836,157.238 325.000 C 157.707 317.310,157.817 316.977,160.079 316.467 C 161.766 316.086,162.151 316.098,165.400 316.639 M153.200 318.922 C 154.832 319.755,154.665 323.895,152.889 326.662 C 151.361 329.042,150.894 329.200,145.399 329.200 C 139.881 329.200,140.604 325.907,138.377 361.144 C 137.597 373.474,137.535 373.606,132.456 373.591 C 128.544 373.580,126.470 372.692,124.935 370.374 L 123.818 368.685 123.924 361.309 C 123.982 357.253,124.209 352.643,124.427 351.067 C 125.454 343.651,126.082 330.700,125.462 329.700 C 125.242 329.344,123.741 329.200,120.253 329.200 C 114.907 329.200,114.189 328.965,113.677 327.049 C 112.783 323.707,114.771 319.184,117.359 318.675 C 119.715 318.211,152.246 318.435,153.200 318.922 M226.555 330.419 C 240.429 332.349,240.297 350.689,226.388 353.634 C 225.184 353.889,223.714 354.345,223.120 354.649 C 222.526 354.952,221.246 355.200,220.276 355.200 C 216.431 355.200,214.890 355.617,214.680 356.713 C 213.819 361.222,220.080 363.555,224.131 360.235 C 228.759 356.443,233.434 358.696,233.137 364.574 C 232.854 370.185,227.403 373.600,218.728 373.600 C 210.424 373.600,204.965 370.577,201.394 364.000 L 200.200 361.800 200.210 354.800 C 200.220 348.013,200.254 347.731,201.310 345.525 C 201.910 344.273,202.400 343.049,202.400 342.804 C 202.400 342.558,202.850 341.695,203.400 340.886 C 203.950 340.077,204.400 339.207,204.400 338.953 C 204.400 338.699,205.435 337.423,206.700 336.117 C 211.372 331.293,218.380 329.282,226.555 330.419 M264.361 330.419 C 273.635 331.582,277.439 337.594,275.991 348.800 C 275.720 350.890,275.415 354.144,275.312 356.032 L 275.126 359.463 277.112 361.126 C 282.205 365.390,277.396 373.600,269.805 373.600 C 267.104 373.600,262.400 370.771,262.400 369.145 C 262.400 368.458,261.450 368.827,259.841 370.138 C 248.983 378.987,234.441 370.067,239.953 357.937 C 241.476 354.584,245.852 350.800,248.206 350.800 C 248.473 350.800,249.181 350.416,249.778 349.946 C 250.710 349.213,251.610 349.053,256.156 348.816 C 262.538 348.484,262.400 348.555,262.400 345.599 C 262.400 340.505,256.248 340.290,254.171 345.312 C 252.943 348.281,246.981 349.125,244.626 346.663 C 242.024 343.944,241.681 341.349,243.447 337.740 C 246.313 331.882,254.150 329.138,264.361 330.419 M217.129 342.770 C 216.148 343.541,214.800 345.844,214.800 346.746 C 214.800 348.580,220.311 347.787,221.882 345.727 C 223.977 342.981,220.003 340.509,217.129 342.770 M256.134 356.629 C 253.911 357.705,253.135 358.975,253.585 360.800 C 254.201 363.294,259.585 361.686,260.727 358.667 C 261.836 355.736,259.825 354.843,256.134 356.629 " stroke="none" fill="#fbfbfb" fill-rule="evenodd"></path><path id="path2" d="M161.800 57.599 C 160.260 58.232,158.592 59.076,158.093 59.475 C 156.384 60.843,152.400 64.990,152.400 65.402 C 152.400 65.629,151.950 66.477,151.400 67.286 C 150.850 68.095,150.396 69.082,150.391 69.479 C 150.386 69.875,150.007 71.010,149.548 72.000 C 147.851 75.659,147.869 87.408,149.578 90.756 C 150.030 91.643,150.400 92.550,150.400 92.772 C 150.400 94.188,154.010 98.161,156.968 100.000 C 163.948 104.341,172.855 101.383,178.268 92.926 C 178.665 92.307,179.194 91.620,179.443 91.400 C 179.693 91.180,180.108 90.128,180.364 89.063 C 180.620 87.997,181.138 86.656,181.515 86.081 C 182.098 85.192,182.200 83.960,182.199 77.818 L 182.197 70.600 180.876 67.477 C 180.149 65.760,179.160 63.878,178.677 63.296 C 176.791 61.019,173.983 58.649,172.527 58.103 C 171.687 57.789,170.370 57.285,169.600 56.983 C 167.417 56.129,164.896 56.328,161.800 57.599 M165.710 63.882 C 163.168 69.573,163.150 72.858,165.627 78.865 C 168.788 86.530,168.710 92.964,165.419 96.000 C 163.836 97.461,163.200 96.437,163.200 92.425 C 163.200 89.656,161.823 84.009,160.804 82.600 C 157.982 78.697,157.452 71.327,159.683 67.000 C 162.849 60.861,168.324 58.027,165.710 63.882 M102.800 124.632 C 94.744 127.211,90.918 138.012,95.144 146.249 C 95.835 147.597,96.400 148.824,96.400 148.976 C 96.400 149.753,99.476 153.237,102.424 155.800 C 117.779 169.144,138.043 162.111,134.350 144.720 C 133.324 139.889,128.285 132.414,124.293 129.800 C 123.957 129.580,122.810 128.792,121.744 128.048 C 120.678 127.304,119.100 126.447,118.237 126.143 C 117.375 125.838,116.474 125.428,116.235 125.232 C 114.783 124.037,105.898 123.640,102.800 124.632 M100.530 134.700 C 103.958 139.934,106.934 141.943,112.000 142.443 C 115.104 142.748,120.120 144.006,121.600 144.850 C 121.930 145.038,122.920 145.579,123.800 146.052 C 126.984 147.763,130.296 152.480,129.222 153.773 C 128.735 154.360,128.621 154.362,127.995 153.795 C 127.028 152.920,122.029 150.401,121.247 150.395 C 120.891 150.392,119.520 150.054,118.200 149.644 C 116.880 149.234,114.221 148.770,112.290 148.613 C 103.694 147.912,95.951 139.609,98.028 133.317 C 98.587 131.621,98.471 131.558,100.530 134.700 M223.400 209.066 C 222.960 209.187,222.420 209.422,222.200 209.588 C 221.980 209.754,221.309 210.007,220.709 210.150 C 219.523 210.433,215.588 213.478,214.058 215.296 C 201.911 229.732,207.985 255.200,223.576 255.200 C 243.232 255.200,250.306 219.087,232.400 210.154 C 230.207 209.060,225.496 208.491,223.400 209.066 M226.794 219.296 C 226.800 222.420,227.159 223.711,229.775 230.000 C 233.078 237.943,232.360 243.895,227.587 248.148 C 225.351 250.141,224.827 248.731,226.417 245.000 C 227.314 242.896,227.083 236.539,226.026 234.200 C 222.576 226.572,222.181 218.539,225.138 216.138 C 226.545 214.996,226.786 215.456,226.794 219.296 " stroke="none" fill="#ca3656" fill-rule="evenodd"></path><path id="path3" d="M267.600 148.390 C 247.426 150.156,253.529 180.398,275.400 187.038 C 278.185 187.883,286.297 188.101,287.239 187.355 C 287.547 187.110,288.329 186.784,288.976 186.629 C 291.065 186.128,293.711 183.830,295.758 180.736 C 297.914 177.478,298.008 170.270,295.955 165.533 C 295.320 164.066,294.800 162.753,294.800 162.616 C 294.800 160.203,284.644 151.267,280.465 150.002 C 279.879 149.825,278.770 149.415,278.000 149.093 C 276.363 148.407,271.308 148.065,267.600 148.390 M265.882 160.259 C 268.240 161.520,271.113 162.311,275.141 162.809 C 283.415 163.831,286.358 165.227,289.900 169.809 C 290.395 170.450,290.800 171.207,290.800 171.491 C 290.800 171.776,291.143 172.772,291.563 173.704 C 292.492 175.769,292.786 177.375,292.361 178.063 C 292.124 178.446,291.971 178.376,291.762 177.789 C 291.608 177.355,291.055 176.550,290.534 176.000 C 290.013 175.450,288.940 174.236,288.148 173.302 C 285.696 170.407,282.783 168.931,278.600 168.463 C 270.799 167.590,264.933 164.663,262.592 160.474 C 261.429 158.393,261.645 157.673,263.137 158.658 C 263.722 159.044,264.957 159.765,265.882 160.259 " stroke="none" fill="#13b5e7" fill-rule="evenodd"></path><path id="path4" d="M187.600 21.024 C 186.830 21.109,183.860 21.382,181.000 21.632 C 178.140 21.881,174.360 22.410,172.600 22.807 C 170.840 23.204,168.500 23.662,167.400 23.823 C 166.300 23.985,164.652 24.438,163.737 24.829 C 162.822 25.220,161.202 25.667,160.137 25.823 C 159.072 25.978,157.562 26.426,156.781 26.819 C 156.001 27.212,154.651 27.660,153.781 27.815 C 152.912 27.970,151.660 28.420,151.000 28.815 C 150.340 29.210,149.080 29.661,148.200 29.817 C 147.320 29.973,146.330 30.331,146.000 30.611 C 145.670 30.892,144.590 31.350,143.600 31.630 C 142.610 31.909,141.516 32.377,141.169 32.669 C 140.821 32.961,140.371 33.199,140.169 33.198 C 139.784 33.195,131.545 37.354,128.361 39.158 C 125.826 40.595,120.975 43.789,118.098 45.916 C 117.714 46.200,116.050 47.424,114.400 48.637 C 108.592 52.906,93.600 67.477,93.600 68.853 C 93.600 69.044,93.445 69.200,93.255 69.200 C 92.415 69.200,82.167 83.800,78.795 89.800 C 77.177 92.681,73.200 100.742,73.200 101.143 C 73.200 101.358,72.750 102.430,72.200 103.525 C 71.650 104.620,71.199 105.850,71.197 106.258 C 71.196 106.666,70.841 107.537,70.408 108.194 C 69.975 108.850,69.505 110.200,69.363 111.194 C 69.222 112.187,68.779 113.542,68.379 114.204 C 67.980 114.867,67.530 116.397,67.380 117.604 C 67.231 118.812,66.835 120.235,66.501 120.767 C 66.167 121.300,65.661 123.190,65.376 124.967 C 65.092 126.745,64.588 129.190,64.257 130.400 C 63.926 131.610,63.464 134.490,63.232 136.800 C 63.000 139.110,62.641 141.990,62.434 143.200 C 61.940 146.095,61.944 153.675,62.442 156.200 C 62.659 157.300,63.016 159.460,63.234 161.000 C 63.453 162.540,63.961 164.520,64.364 165.400 C 64.766 166.280,65.334 167.630,65.625 168.400 C 65.916 169.170,66.275 169.890,66.421 170.000 C 66.568 170.110,66.967 170.743,67.307 171.408 C 68.761 174.248,75.263 179.686,78.742 180.972 C 79.544 181.268,80.920 181.786,81.800 182.123 C 84.580 183.187,90.977 184.800,92.416 184.800 C 93.177 184.801,95.097 185.071,96.682 185.402 C 98.267 185.733,101.783 186.263,104.494 186.580 C 112.259 187.488,120.330 189.368,123.449 190.995 C 124.082 191.325,124.739 191.596,124.909 191.598 C 126.141 191.607,130.935 195.518,132.957 198.163 C 138.526 205.449,139.604 215.127,136.724 232.000 C 133.346 251.794,133.061 256.389,134.762 263.600 C 136.140 269.440,139.975 275.056,145.314 279.049 C 147.528 280.705,158.012 285.600,159.346 285.600 C 159.701 285.600,160.938 285.966,162.096 286.412 C 163.253 286.859,165.585 287.403,167.277 287.622 C 168.969 287.840,171.090 288.279,171.990 288.596 C 177.633 290.587,211.929 290.601,217.559 288.614 C 218.487 288.287,220.631 287.841,222.323 287.624 C 224.015 287.407,226.431 286.863,227.690 286.415 C 228.950 285.967,230.350 285.600,230.802 285.600 C 231.254 285.600,232.693 285.150,234.000 284.600 C 235.307 284.050,236.674 283.600,237.038 283.600 C 237.402 283.600,238.712 283.165,239.950 282.633 C 241.187 282.102,243.550 281.166,245.200 280.554 C 249.346 279.017,259.770 273.664,264.040 270.879 C 264.613 270.505,265.603 269.856,266.240 269.436 C 266.878 269.016,268.120 268.211,269.000 267.649 C 269.880 267.086,270.870 266.393,271.200 266.108 C 271.857 265.541,276.187 262.382,278.387 260.864 C 282.326 258.145,292.351 248.337,296.065 243.568 C 296.651 242.816,297.517 241.750,297.990 241.200 C 300.773 237.959,302.112 236.208,304.871 232.200 C 309.980 224.780,316.000 214.178,316.000 212.602 C 316.000 212.325,316.248 211.892,316.550 211.641 C 316.853 211.390,317.330 210.333,317.611 209.292 C 317.892 208.252,318.344 207.130,318.616 206.800 C 318.888 206.470,319.238 205.570,319.394 204.800 C 319.550 204.030,319.994 202.850,320.380 202.177 C 320.766 201.505,321.210 200.245,321.367 199.377 C 321.523 198.510,321.978 197.161,322.377 196.381 C 322.776 195.601,323.236 193.981,323.398 192.781 C 323.561 191.581,323.939 190.120,324.240 189.534 C 324.540 188.947,325.045 186.877,325.361 184.934 C 325.677 182.990,326.139 180.870,326.387 180.223 C 326.636 179.576,327.096 176.426,327.411 173.223 C 327.725 170.020,328.166 166.320,328.389 165.000 C 329.000 161.391,328.898 148.000,328.229 144.000 C 327.916 142.130,327.547 138.980,327.408 137.000 C 327.269 135.020,326.817 132.050,326.403 130.400 C 325.989 128.750,325.524 126.410,325.370 125.200 C 325.215 123.990,324.776 122.190,324.393 121.200 C 324.011 120.210,323.564 118.598,323.400 117.618 C 323.236 116.639,322.779 115.199,322.385 114.418 C 321.991 113.638,321.543 112.190,321.390 111.200 C 321.238 110.210,320.890 109.130,320.617 108.800 C 320.345 108.470,319.887 107.300,319.600 106.200 C 319.313 105.100,318.836 103.916,318.539 103.569 C 318.243 103.221,318.000 102.672,318.000 102.347 C 318.000 102.023,317.531 100.777,316.957 99.579 C 316.384 98.380,315.354 96.230,314.669 94.800 C 311.006 87.152,301.867 73.381,297.100 68.326 C 296.275 67.451,295.600 66.647,295.600 66.541 C 295.600 65.604,281.804 52.279,277.942 49.486 C 276.984 48.792,276.110 48.121,276.000 47.993 C 275.506 47.420,267.157 41.600,266.829 41.600 C 266.627 41.600,265.953 41.191,265.331 40.691 C 264.709 40.191,263.570 39.467,262.800 39.082 C 262.030 38.697,260.500 37.858,259.400 37.218 C 258.300 36.577,257.130 35.941,256.800 35.804 C 256.470 35.667,255.390 35.136,254.400 34.625 C 253.410 34.113,252.150 33.562,251.600 33.400 C 251.050 33.238,250.330 32.888,250.000 32.622 C 249.670 32.356,248.590 31.909,247.600 31.630 C 246.610 31.350,245.530 30.892,245.200 30.611 C 244.870 30.331,243.920 29.979,243.088 29.830 C 242.257 29.681,240.997 29.228,240.288 28.824 C 239.580 28.419,238.286 27.963,237.414 27.810 C 236.541 27.657,235.335 27.277,234.734 26.966 C 234.132 26.655,232.686 26.208,231.520 25.974 C 230.354 25.740,228.500 25.221,227.400 24.821 C 220.407 22.277,196.717 20.017,187.600 21.024 M210.600 23.173 C 218.414 24.298,223.669 25.209,224.304 25.548 C 224.703 25.762,226.536 26.223,228.378 26.572 C 230.220 26.921,231.923 27.362,232.163 27.551 C 232.404 27.740,233.590 28.110,234.800 28.373 C 236.010 28.635,237.720 29.181,238.600 29.587 C 239.480 29.992,240.965 30.446,241.900 30.597 C 242.835 30.747,243.600 31.021,243.600 31.204 C 243.600 31.388,244.275 31.741,245.100 31.989 C 246.594 32.438,247.903 33.025,253.600 35.807 C 259.703 38.786,268.390 44.096,272.770 47.524 C 273.807 48.336,275.267 49.450,276.012 50.000 C 276.758 50.550,278.546 51.976,279.984 53.168 C 281.423 54.361,282.870 55.557,283.200 55.827 C 284.442 56.841,294.633 67.158,295.400 68.177 C 295.840 68.761,296.667 69.816,297.238 70.520 C 301.352 75.591,309.027 87.282,312.072 93.115 C 313.139 95.158,314.174 97.138,314.373 97.515 C 315.730 100.090,316.800 102.462,316.800 102.896 C 316.800 103.177,317.228 104.215,317.751 105.203 C 318.274 106.191,318.837 107.627,319.003 108.394 C 319.169 109.161,319.544 110.153,319.836 110.599 C 320.129 111.045,320.579 112.396,320.838 113.601 C 321.096 114.806,321.540 116.154,321.825 116.596 C 322.109 117.038,322.551 118.569,322.806 119.997 C 323.062 121.426,323.519 123.189,323.823 123.916 C 324.126 124.643,324.548 126.927,324.759 128.992 C 324.970 131.057,325.327 133.090,325.551 133.509 C 327.449 137.056,327.339 172.063,325.413 177.400 C 325.095 178.280,324.827 179.816,324.818 180.813 C 324.808 181.810,324.519 183.610,324.175 184.813 C 323.832 186.016,323.292 188.260,322.977 189.800 C 322.662 191.340,322.143 193.230,321.825 194.000 C 321.506 194.770,320.963 196.426,320.618 197.680 C 320.272 198.933,319.828 200.059,319.630 200.182 C 319.432 200.304,319.142 201.168,318.986 202.102 C 318.829 203.036,318.375 204.430,317.976 205.200 C 316.875 207.323,315.316 210.878,314.993 212.000 C 314.835 212.550,314.492 213.270,314.231 213.600 C 313.970 213.930,313.095 215.494,312.286 217.075 C 310.907 219.770,310.161 221.023,306.021 227.600 C 302.247 233.594,300.507 236.137,299.000 237.857 C 298.780 238.108,297.569 239.638,296.309 241.257 C 293.238 245.203,281.569 256.672,277.214 260.025 C 276.232 260.781,275.073 261.715,274.638 262.100 C 274.204 262.485,273.729 262.800,273.583 262.800 C 273.437 262.800,272.796 263.245,272.158 263.790 C 271.521 264.334,270.722 265.017,270.383 265.307 C 270.043 265.597,269.188 266.073,268.483 266.366 C 267.777 266.658,267.200 267.064,267.200 267.269 C 267.200 267.473,266.582 267.899,265.827 268.214 C 265.072 268.530,264.340 268.973,264.200 269.200 C 264.060 269.427,263.289 269.886,262.487 270.222 C 261.684 270.557,260.932 270.978,260.814 271.159 C 260.696 271.339,259.790 271.867,258.800 272.333 C 257.810 272.799,256.730 273.352,256.400 273.561 C 253.495 275.407,240.741 280.755,234.797 282.620 C 232.929 283.206,230.770 283.911,230.000 284.188 C 227.904 284.940,223.706 286.006,221.000 286.472 C 219.680 286.700,217.340 287.151,215.800 287.475 C 210.646 288.560,207.474 288.758,194.833 288.784 C 181.683 288.811,179.756 288.708,175.759 287.767 C 174.417 287.451,171.864 287.010,170.087 286.787 C 168.309 286.564,166.199 286.108,165.398 285.773 C 164.597 285.439,163.190 285.001,162.271 284.802 C 152.808 282.744,142.381 276.084,138.863 269.850 C 135.854 264.519,134.697 253.251,136.290 244.800 C 136.560 243.370,137.065 240.432,137.414 238.272 C 137.762 236.111,138.125 234.131,138.220 233.872 C 139.337 230.823,140.264 215.778,139.629 211.000 C 138.295 200.965,132.191 192.463,124.161 189.453 C 118.661 187.392,113.848 186.109,110.400 185.786 C 108.970 185.652,106.450 185.285,104.800 184.971 C 103.150 184.657,99.910 184.221,97.600 184.003 C 88.620 183.153,76.588 179.439,74.173 176.770 C 73.790 176.347,73.318 176.000,73.125 176.000 C 72.672 176.000,70.000 173.335,70.000 172.883 C 70.000 172.694,69.550 172.117,69.000 171.600 C 68.450 171.083,68.000 170.457,68.000 170.208 C 68.000 169.959,67.550 169.145,67.000 168.400 C 66.450 167.655,65.996 166.675,65.991 166.222 C 65.986 165.770,65.647 164.660,65.236 163.757 C 63.355 159.615,63.326 139.714,65.190 132.600 C 65.594 131.060,66.020 128.629,66.138 127.198 C 66.255 125.766,66.719 123.786,67.167 122.798 C 67.616 121.809,67.988 120.370,67.995 119.600 C 68.002 118.830,68.450 117.300,68.991 116.200 C 69.532 115.100,69.981 113.789,69.987 113.287 C 69.994 112.784,70.450 111.485,71.000 110.400 C 71.550 109.315,72.000 108.101,72.000 107.702 C 72.000 107.304,72.238 106.623,72.529 106.189 C 72.820 105.755,73.297 104.770,73.589 104.000 C 74.995 100.301,80.470 89.654,81.905 87.830 C 82.397 87.204,82.800 86.520,82.800 86.309 C 82.800 86.099,83.173 85.448,83.630 84.863 C 84.416 83.856,86.852 80.222,88.600 77.449 C 89.343 76.270,92.742 71.651,93.198 71.200 C 93.309 71.090,94.108 70.100,94.972 69.000 C 96.830 66.638,105.060 58.421,109.017 54.979 C 111.394 52.910,112.444 52.076,115.400 49.906 C 115.620 49.744,116.340 49.182,117.000 48.656 C 118.881 47.157,126.489 41.953,127.389 41.548 C 127.835 41.348,129.010 40.660,130.000 40.020 C 132.523 38.389,144.350 32.544,145.800 32.212 C 146.460 32.061,147.273 31.692,147.606 31.391 C 147.940 31.091,149.076 30.652,150.132 30.415 C 151.187 30.179,152.444 29.745,152.925 29.450 C 153.406 29.156,154.880 28.690,156.200 28.413 C 157.520 28.137,158.804 27.746,159.054 27.545 C 159.303 27.344,160.957 26.924,162.729 26.612 C 164.501 26.301,166.457 25.790,167.075 25.478 C 167.694 25.165,169.425 24.789,170.922 24.641 C 172.419 24.494,174.984 24.096,176.621 23.758 C 182.713 22.498,203.435 22.141,210.600 23.173 M161.037 51.425 C 159.517 51.956,157.987 52.640,157.637 52.947 C 157.287 53.253,156.460 53.782,155.800 54.122 C 154.136 54.980,150.860 58.208,149.226 60.600 C 146.835 64.102,146.556 64.557,145.454 66.758 C 133.624 90.403,154.610 118.178,174.416 105.089 C 178.642 102.295,184.800 94.909,184.800 92.632 C 184.800 92.267,185.165 91.474,185.610 90.872 C 186.056 90.269,186.589 88.881,186.795 87.788 C 187.002 86.695,187.443 84.630,187.777 83.200 C 188.571 79.794,188.571 73.973,187.776 71.187 C 187.433 69.984,187.015 68.260,186.848 67.355 C 186.680 66.450,186.151 65.044,185.672 64.232 C 185.192 63.419,184.800 62.580,184.800 62.367 C 184.800 62.155,184.204 61.114,183.476 60.056 C 177.900 51.950,169.159 48.588,161.037 51.425 M170.000 52.417 C 174.241 53.086,182.000 58.049,182.000 60.091 C 182.000 60.284,182.450 61.105,183.000 61.914 C 183.550 62.723,184.000 63.631,184.000 63.931 C 184.000 64.231,184.328 64.954,184.729 65.538 C 187.048 68.918,187.060 83.877,184.748 89.400 C 182.962 93.666,181.476 96.473,180.633 97.173 C 180.285 97.462,180.000 97.875,180.000 98.092 C 180.000 98.309,179.145 99.286,178.100 100.263 C 164.306 113.161,146.680 105.774,144.358 86.123 C 143.791 81.323,144.422 73.263,145.573 70.600 C 145.953 69.720,146.397 68.471,146.559 67.824 C 146.721 67.178,147.201 66.160,147.627 65.563 C 148.052 64.965,148.400 64.294,148.400 64.071 C 148.400 63.439,152.667 58.359,154.527 56.777 C 157.248 54.463,160.501 52.858,163.274 52.461 C 166.793 51.956,167.074 51.955,170.000 52.417 M161.400 57.420 C 160.300 57.954,159.831 58.283,160.357 58.150 C 161.769 57.796,164.698 56.415,164.000 56.433 C 163.670 56.442,162.500 56.886,161.400 57.420 M169.203 56.774 C 169.754 56.941,170.780 57.376,171.483 57.739 C 172.185 58.103,172.994 58.392,173.280 58.382 C 174.250 58.348,170.207 56.436,169.200 56.452 L 168.200 56.469 169.203 56.774 M157.600 59.400 C 157.083 59.950,156.773 60.400,156.910 60.400 C 157.047 60.400,157.644 59.950,158.238 59.400 C 158.831 58.850,159.142 58.400,158.928 58.400 C 158.714 58.400,158.117 58.850,157.600 59.400 M174.596 59.179 C 175.033 59.671,175.753 60.264,176.196 60.495 C 176.999 60.916,176.999 60.915,176.204 60.021 C 175.767 59.529,175.047 58.936,174.604 58.705 C 173.801 58.284,173.801 58.285,174.596 59.179 M155.164 61.504 C 152.726 64.236,152.394 64.826,154.376 62.902 C 155.565 61.748,156.448 60.715,156.340 60.606 C 156.231 60.497,155.702 60.901,155.164 61.504 M165.103 60.971 C 163.886 61.489,161.360 63.785,160.727 64.949 C 160.503 65.361,161.117 64.866,162.091 63.849 C 164.765 61.059,166.177 61.393,164.807 64.492 C 162.641 69.387,162.862 72.575,165.961 81.200 C 167.942 86.711,167.713 92.619,165.423 95.089 C 164.245 96.359,164.166 96.210,163.830 92.088 C 163.604 89.323,161.635 82.675,160.792 81.832 C 160.292 81.332,160.253 82.081,160.750 82.620 C 161.738 83.691,163.200 89.543,163.200 92.425 C 163.200 96.437,163.836 97.461,165.419 96.000 C 168.710 92.964,168.788 86.530,165.627 78.865 C 163.150 72.858,163.168 69.573,165.710 63.882 C 167.021 60.946,166.869 60.219,165.103 60.971 M151.282 66.827 C 150.784 67.692,150.457 68.400,150.555 68.400 C 150.831 68.400,152.512 65.579,152.339 65.406 C 152.255 65.322,151.780 65.962,151.282 66.827 M180.233 66.000 C 180.381 66.550,180.750 67.489,181.054 68.087 C 181.358 68.685,181.782 69.855,181.997 70.687 L 182.386 72.200 182.196 70.600 C 182.091 69.720,181.546 68.100,180.985 67.000 C 180.423 65.900,180.085 65.450,180.233 66.000 M159.275 67.819 C 158.794 68.811,158.404 69.932,158.409 70.311 C 158.415 70.690,158.859 69.929,159.397 68.621 C 160.569 65.770,160.498 65.303,159.275 67.819 M245.000 68.224 C 243.900 68.537,242.137 68.972,241.082 69.190 C 234.651 70.518,221.200 80.676,221.200 84.205 C 221.200 84.388,220.953 84.821,220.651 85.169 C 216.662 89.760,217.252 101.592,221.740 107.000 C 224.662 110.521,225.730 111.267,232.000 114.167 C 234.819 115.471,248.883 115.423,251.751 114.100 C 252.824 113.605,253.885 113.200,254.109 113.200 C 255.005 113.200,260.722 110.194,262.600 108.735 C 265.316 106.625,269.187 103.072,269.194 102.683 C 269.197 102.508,269.650 101.880,270.200 101.287 C 270.750 100.693,271.200 100.003,271.200 99.753 C 271.200 99.503,271.461 99.082,271.780 98.817 C 272.098 98.552,272.564 97.675,272.814 96.868 C 273.064 96.061,273.526 94.828,273.839 94.130 C 275.269 90.943,275.281 84.462,273.863 81.720 C 273.498 81.016,273.200 80.249,273.200 80.015 C 273.200 79.132,269.879 74.774,268.077 73.294 C 264.663 70.488,261.957 69.280,256.200 67.993 C 253.767 67.449,247.249 67.583,245.000 68.224 M149.235 71.506 C 148.731 72.854,148.413 74.191,148.528 74.478 C 148.672 74.837,148.747 74.798,148.768 74.351 C 148.786 73.994,149.172 72.860,149.627 71.832 C 150.082 70.804,150.386 69.758,150.303 69.509 C 150.220 69.259,149.739 70.158,149.235 71.506 M256.769 69.836 C 261.860 70.780,270.000 75.409,270.000 77.360 C 270.000 77.510,270.402 78.176,270.893 78.840 C 272.795 81.413,273.977 87.327,273.203 90.400 C 272.954 91.390,272.559 93.010,272.327 94.000 C 270.553 101.539,261.839 109.120,250.584 112.916 C 245.922 114.488,236.829 114.535,233.540 113.004 C 232.363 112.456,231.166 112.006,230.881 112.004 C 229.959 111.997,226.042 109.257,224.158 107.302 C 209.081 91.653,232.058 65.256,256.769 69.836 M158.114 73.000 C 158.117 74.100,158.195 74.503,158.287 73.895 C 158.379 73.286,158.377 72.386,158.282 71.895 C 158.187 71.403,158.111 71.900,158.114 73.000 M182.551 77.200 C 182.551 79.730,182.616 80.765,182.696 79.500 C 182.775 78.235,182.775 76.165,182.696 74.900 C 182.616 73.635,182.551 74.670,182.551 77.200 M244.400 73.760 C 222.068 78.765,216.452 103.641,236.351 109.410 C 246.971 112.489,263.487 105.197,266.988 95.884 C 267.253 95.178,267.770 93.931,268.135 93.113 C 269.215 90.697,269.050 85.205,267.818 82.602 C 264.290 75.143,254.582 71.478,244.400 73.760 M158.400 76.259 C 158.400 76.837,160.127 81.206,160.291 81.043 C 160.477 80.856,158.797 76.000,158.546 76.000 C 158.466 76.000,158.400 76.117,158.400 76.259 M148.124 78.600 C 148.126 79.920,148.201 80.412,148.290 79.693 C 148.379 78.974,148.377 77.894,148.286 77.293 C 148.195 76.692,148.122 77.280,148.124 78.600 M260.504 82.199 C 263.106 83.400,263.154 84.000,260.650 84.000 C 255.033 84.000,251.564 85.791,247.244 90.920 C 242.254 96.846,238.065 99.600,234.039 99.600 C 230.613 99.600,230.306 98.896,233.140 97.535 C 235.644 96.333,238.570 93.640,241.541 89.802 C 247.857 81.641,253.978 79.187,260.504 82.199 M148.120 84.400 C 148.120 85.610,148.195 86.105,148.287 85.500 C 148.378 84.895,148.378 83.905,148.287 83.300 C 148.195 82.695,148.120 83.190,148.120 84.400 M181.102 86.886 C 180.771 87.609,180.392 88.740,180.261 89.400 C 179.995 90.729,179.890 90.919,181.458 87.250 C 182.208 85.495,181.890 85.168,181.102 86.886 M148.441 88.424 C 148.418 88.986,148.683 89.796,149.030 90.224 C 149.376 90.651,149.527 90.746,149.366 90.435 C 149.204 90.124,148.939 89.314,148.777 88.635 C 148.506 87.500,148.479 87.482,148.441 88.424 M176.800 94.781 C 176.800 95.431,173.266 98.685,171.325 99.823 C 167.902 101.829,162.302 102.642,159.719 101.509 C 158.065 100.783,154.644 98.576,154.034 97.841 C 153.741 97.488,153.362 97.200,153.191 97.200 C 152.334 97.200,155.390 99.707,157.827 101.005 C 163.157 103.842,170.715 102.231,175.224 97.297 C 176.994 95.361,177.583 94.400,177.000 94.400 C 176.890 94.400,176.800 94.572,176.800 94.781 M103.200 118.244 C 102.870 118.369,102.060 118.712,101.400 119.005 C 100.740 119.298,99.660 119.665,99.000 119.820 C 95.434 120.658,90.897 125.171,88.812 129.952 C 87.131 133.810,87.067 142.559,88.700 145.323 C 89.195 146.160,89.600 147.170,89.600 147.567 C 89.600 147.964,90.050 148.951,90.600 149.762 C 91.150 150.572,91.600 151.372,91.600 151.538 C 91.600 154.030,102.074 163.705,106.800 165.579 C 107.570 165.884,108.401 166.286,108.647 166.472 C 110.690 168.017,124.263 169.615,125.732 168.485 C 125.989 168.286,127.094 167.882,128.187 167.586 C 131.356 166.727,136.365 162.998,137.799 160.430 C 142.919 151.261,141.827 141.819,134.506 131.952 C 131.945 128.501,127.880 124.967,123.446 122.335 C 122.029 121.494,118.401 120.007,117.200 119.774 C 116.430 119.625,115.260 119.222,114.600 118.877 C 113.382 118.241,104.506 117.748,103.200 118.244 M114.200 120.159 C 115.960 120.539,118.030 121.178,118.800 121.579 C 119.570 121.980,120.624 122.437,121.141 122.594 C 124.552 123.630,132.294 130.959,135.365 136.059 C 148.875 158.493,126.467 176.616,103.485 161.844 C 99.765 159.453,92.400 151.772,92.400 150.283 C 92.400 150.085,92.063 149.446,91.652 148.862 C 88.967 145.052,88.060 136.154,89.873 131.408 C 91.316 127.629,94.641 122.800,95.799 122.800 C 95.952 122.800,96.644 122.396,97.338 121.901 C 100.702 119.505,107.776 118.774,114.200 120.159 M106.711 123.893 C 107.651 123.978,109.091 123.977,109.911 123.891 C 110.730 123.805,109.960 123.736,108.200 123.737 C 106.440 123.739,105.770 123.809,106.711 123.893 M101.400 124.627 C 99.267 125.685,98.487 126.219,97.316 127.421 C 95.490 129.293,94.033 131.703,93.815 133.210 L 93.614 134.600 94.033 133.200 C 95.024 129.892,99.241 125.771,102.800 124.632 C 104.086 124.220,104.314 124.052,103.600 124.044 C 103.050 124.037,102.060 124.299,101.400 124.627 M113.788 124.469 C 114.881 124.677,115.977 125.015,116.222 125.219 C 116.468 125.423,117.375 125.838,118.237 126.143 C 119.822 126.702,123.381 128.922,123.813 129.621 C 123.942 129.830,124.248 130.000,124.493 130.000 C 124.739 130.000,124.517 129.550,124.000 129.000 C 123.483 128.450,122.879 128.000,122.656 128.000 C 122.434 128.000,121.880 127.660,121.426 127.245 C 120.054 125.991,115.009 123.996,113.333 124.045 C 111.825 124.089,111.832 124.096,113.788 124.469 M125.200 130.180 C 125.200 130.371,125.974 131.264,126.921 132.164 C 129.149 134.282,130.648 136.338,132.489 139.800 C 133.309 141.340,133.984 142.329,133.989 141.997 C 134.004 141.152,132.157 137.777,130.380 135.400 C 128.726 133.188,125.200 129.635,125.200 130.180 M97.999 133.403 C 97.744 134.175,97.611 135.030,97.703 135.303 C 97.795 135.577,98.003 135.096,98.165 134.236 L 98.460 132.672 99.217 133.836 C 100.214 135.368,101.192 136.699,102.320 138.056 C 103.407 139.364,107.931 142.400,108.793 142.400 C 109.124 142.400,108.495 141.930,107.397 141.355 C 104.728 139.959,102.665 137.960,100.530 134.700 C 98.462 131.544,98.591 131.610,97.999 133.403 M93.052 135.700 C 92.709 136.981,92.795 140.056,93.200 141.000 C 93.429 141.532,93.553 140.628,93.572 138.300 C 93.601 134.722,93.478 134.110,93.052 135.700 M98.000 137.063 C 98.000 140.847,106.037 148.560,109.764 148.354 C 110.570 148.309,110.571 148.300,109.800 148.109 C 105.462 147.037,101.419 143.671,99.353 139.411 C 98.609 137.877,98.000 136.821,98.000 137.063 M112.800 142.976 C 114.670 143.287,116.707 143.734,117.326 143.970 C 117.945 144.207,118.755 144.392,119.126 144.381 C 121.054 144.328,115.341 142.774,112.601 142.607 L 109.400 142.411 112.800 142.976 M264.596 143.146 C 263.714 143.547,262.325 144.000,261.509 144.153 C 260.693 144.306,259.786 144.671,259.493 144.964 C 259.200 145.257,258.427 145.772,257.775 146.110 C 249.697 150.287,247.079 164.244,252.544 174.000 C 260.917 188.947,277.639 196.991,290.500 192.259 C 292.205 191.632,293.600 190.957,293.600 190.759 C 293.600 190.562,293.864 190.400,294.187 190.400 C 294.711 190.400,298.573 186.804,299.920 185.064 C 303.191 180.834,304.193 170.729,301.797 166.135 C 301.471 165.511,301.204 164.767,301.202 164.483 C 301.189 161.578,293.743 152.245,289.000 149.186 C 287.680 148.335,286.330 147.383,286.000 147.070 C 285.670 146.757,284.950 146.368,284.400 146.205 C 283.850 146.042,282.860 145.584,282.200 145.188 C 281.540 144.792,280.280 144.347,279.400 144.199 C 278.520 144.052,276.764 143.586,275.498 143.165 C 272.398 142.134,266.845 142.125,264.596 143.146 M134.224 143.600 C 138.082 161.904,117.978 169.666,102.512 155.844 C 99.903 153.513,99.480 153.617,102.000 155.970 C 113.319 166.539,130.801 165.357,134.377 153.781 C 135.331 150.690,135.417 146.591,134.576 144.200 C 134.267 143.320,134.108 143.050,134.224 143.600 M273.932 144.453 C 277.534 144.875,284.162 147.012,284.785 147.952 C 284.903 148.131,285.459 148.529,286.020 148.838 C 301.573 157.401,306.655 178.878,295.248 187.835 C 287.453 193.955,274.326 192.907,264.200 185.356 C 261.449 183.304,257.600 179.708,257.600 179.189 C 257.600 179.043,257.159 178.411,256.620 177.784 C 255.757 176.779,253.672 172.867,252.791 170.600 C 252.621 170.160,252.239 169.170,251.943 168.400 C 249.233 161.342,253.441 149.064,259.429 146.562 C 260.153 146.260,260.848 145.846,260.974 145.642 C 261.100 145.439,262.507 145.060,264.101 144.800 C 265.696 144.540,267.270 144.275,267.600 144.210 C 268.860 143.964,270.187 144.014,273.932 144.453 M94.001 144.659 C 93.999 145.360,96.361 149.720,97.111 150.400 C 97.723 150.954,97.726 150.939,97.153 150.200 C 96.811 149.760,96.286 148.770,95.987 148.000 C 95.297 146.230,94.003 144.052,94.001 144.659 M122.244 145.627 C 125.188 147.161,128.000 149.969,128.000 151.377 C 128.000 152.708,127.051 152.716,125.114 151.400 C 124.305 150.850,123.408 150.398,123.121 150.395 C 122.835 150.392,121.198 149.942,119.485 149.395 C 117.493 148.759,115.545 148.419,114.085 148.453 L 111.800 148.505 114.400 148.822 C 115.830 148.996,117.788 149.422,118.750 149.769 C 119.713 150.116,120.814 150.400,121.197 150.400 C 122.013 150.400,126.990 152.886,127.995 153.795 C 128.621 154.362,128.735 154.360,129.222 153.773 C 130.320 152.451,126.924 147.686,123.727 146.061 C 122.807 145.594,121.941 145.029,121.804 144.806 C 121.666 144.583,121.178 144.400,120.720 144.400 C 120.208 144.400,120.793 144.872,122.244 145.627 M156.376 168.520 C 153.872 169.231,149.600 172.364,149.600 173.489 C 149.600 173.770,149.425 174.000,149.210 174.000 C 148.690 174.000,147.600 176.152,147.600 177.180 C 147.600 177.631,147.428 178.000,147.219 178.000 C 146.028 178.000,145.612 185.083,146.642 187.800 C 146.976 188.680,147.486 190.351,147.775 191.514 C 148.065 192.677,148.594 193.951,148.951 194.346 C 149.308 194.740,149.600 195.238,149.600 195.452 C 149.600 197.753,160.477 209.200,162.664 209.200 C 162.959 209.200,163.200 209.353,163.200 209.539 C 163.200 209.726,163.965 210.200,164.900 210.594 C 165.835 210.987,167.160 211.551,167.844 211.847 C 174.493 214.721,183.340 213.298,187.759 208.642 C 195.310 200.687,191.226 184.048,179.532 175.121 C 178.518 174.348,177.444 173.506,177.145 173.252 C 172.261 169.099,162.315 166.833,156.376 168.520 M167.882 170.353 C 175.974 173.004,182.736 178.299,185.975 184.524 C 186.340 185.226,186.838 186.160,187.082 186.600 C 191.261 194.149,190.861 203.948,186.193 208.351 C 181.613 212.671,174.781 213.151,166.200 209.755 C 165.633 209.531,162.431 207.592,160.572 206.348 C 157.866 204.537,152.400 198.749,152.400 197.695 C 152.400 197.491,152.040 196.998,151.600 196.600 C 151.160 196.202,150.800 195.661,150.800 195.398 C 150.800 195.134,150.353 194.079,149.808 193.053 C 148.871 191.291,148.208 188.528,147.725 184.371 C 147.443 181.948,148.591 176.474,149.608 175.391 C 150.044 174.928,150.400 174.365,150.400 174.141 C 150.400 173.572,153.206 171.377,154.406 171.008 C 154.953 170.840,155.626 170.521,155.902 170.300 C 157.710 168.854,163.382 168.878,167.882 170.353 M221.400 203.621 C 219.420 204.303,217.530 205.095,217.200 205.382 C 216.870 205.669,216.035 206.189,215.345 206.539 C 211.429 208.521,205.007 217.360,204.145 221.952 C 203.998 222.733,203.509 224.189,203.058 225.186 C 201.789 227.989,201.830 240.102,203.118 242.951 C 203.603 244.024,204.001 245.194,204.001 245.551 C 204.003 246.290,206.250 250.884,207.421 252.543 C 209.350 255.276,213.682 258.769,216.154 259.585 C 216.992 259.861,218.155 260.337,218.739 260.641 C 220.180 261.393,227.020 261.393,228.461 260.641 C 229.045 260.337,230.195 259.866,231.016 259.595 C 233.792 258.679,237.450 255.978,239.808 253.104 C 240.684 252.037,241.715 250.784,242.100 250.321 C 242.485 249.857,242.800 249.297,242.800 249.077 C 242.800 248.856,243.210 248.119,243.711 247.438 C 249.834 239.114,249.665 217.600,243.435 212.429 C 243.086 212.139,242.800 211.723,242.800 211.504 C 242.800 211.082,238.205 206.400,237.791 206.400 C 237.656 206.400,236.974 205.970,236.273 205.444 C 235.573 204.918,234.373 204.354,233.606 204.191 C 232.839 204.028,231.822 203.640,231.346 203.328 C 229.537 202.142,225.336 202.266,221.400 203.621 M230.800 204.660 C 232.801 205.049,234.482 205.613,234.886 206.029 C 235.264 206.419,235.983 206.868,236.483 207.026 C 237.579 207.374,241.017 210.925,241.879 212.600 C 242.218 213.260,242.712 214.070,242.975 214.400 C 247.855 220.521,247.610 239.256,242.551 246.711 C 242.028 247.481,241.600 248.264,241.600 248.451 C 241.600 251.029,232.702 257.897,227.710 259.172 C 222.321 260.548,213.687 258.481,212.467 255.523 C 212.393 255.345,212.173 255.200,211.977 255.200 C 211.161 255.200,207.552 250.734,206.806 248.800 C 206.509 248.030,206.093 247.173,205.881 246.896 C 204.030 244.475,202.580 229.739,204.001 227.800 C 204.163 227.580,204.527 226.140,204.811 224.601 C 205.096 223.061,205.749 221.009,206.264 220.041 C 206.779 219.073,207.200 217.948,207.200 217.540 C 207.200 217.133,207.376 216.800,207.592 216.800 C 207.807 216.800,208.356 216.125,208.812 215.300 C 210.304 212.598,211.367 211.344,213.676 209.559 C 214.928 208.592,215.963 207.665,215.976 207.500 C 215.989 207.335,216.246 207.200,216.546 207.200 C 216.846 207.200,217.597 206.803,218.214 206.317 C 220.618 204.427,225.973 203.722,230.800 204.660 M225.000 216.250 C 224.281 216.862,224.134 217.105,224.633 216.857 C 225.366 216.493,226.741 215.176,226.349 215.214 C 226.267 215.222,225.660 215.688,225.000 216.250 M226.514 217.800 C 226.517 218.900,226.595 219.303,226.687 218.695 C 226.779 218.086,226.777 217.186,226.682 216.695 C 226.587 216.203,226.511 216.700,226.514 217.800 M207.314 234.200 C 207.317 235.300,207.395 235.703,207.487 235.095 C 207.579 234.486,207.577 233.586,207.482 233.095 C 207.387 232.603,207.311 233.100,207.314 234.200 M214.367 251.745 C 214.900 252.401,216.400 253.393,216.400 253.089 C 216.400 253.013,215.815 252.522,215.100 251.999 C 214.296 251.410,214.016 251.313,214.367 251.745 M160.079 316.467 C 157.817 316.977,157.707 317.310,157.238 325.000 C 156.577 335.836,155.632 349.153,155.153 354.400 C 153.676 370.575,154.879 373.600,162.790 373.600 C 167.275 373.600,167.546 373.078,168.391 362.800 C 169.301 351.738,169.661 348.982,170.427 347.249 C 170.852 346.286,171.200 345.350,171.200 345.168 C 171.200 343.872,174.206 342.000,176.288 342.000 C 180.569 342.000,180.666 342.354,179.998 355.628 C 179.183 371.818,179.663 373.151,186.450 373.535 C 192.163 373.858,192.191 373.808,193.247 361.077 C 195.114 338.558,194.728 335.679,189.343 331.964 C 185.830 329.540,177.619 329.542,173.722 331.967 C 171.142 333.573,170.974 333.299,171.129 327.739 C 171.354 319.650,170.213 317.440,165.400 316.639 C 162.151 316.098,161.766 316.086,160.079 316.467 M167.936 319.353 L 169.400 320.821 169.307 327.451 C 169.192 335.720,170.081 337.514,172.830 334.557 C 177.061 330.006,188.564 330.809,191.084 335.831 C 192.860 339.369,193.060 343.322,192.057 355.000 C 191.792 358.080,191.409 362.850,191.205 365.600 C 190.742 371.851,190.451 372.226,186.410 371.796 C 183.739 371.511,182.731 371.160,181.500 370.087 C 180.577 369.281,180.513 357.144,181.406 352.200 C 183.119 342.718,179.574 337.948,173.222 341.189 C 169.053 343.316,168.157 346.099,166.779 361.200 C 165.770 372.252,165.788 372.212,162.106 371.834 C 158.071 371.421,156.704 370.512,156.240 367.932 C 155.853 365.781,156.705 348.216,157.427 343.474 C 157.768 341.233,158.202 334.900,158.391 329.400 C 158.826 316.700,158.446 317.559,163.536 317.765 C 166.316 317.878,166.548 317.962,167.936 319.353 M117.359 318.675 C 114.771 319.184,112.783 323.707,113.677 327.049 C 114.189 328.965,114.907 329.200,120.253 329.200 C 123.741 329.200,125.242 329.344,125.462 329.700 C 126.082 330.700,125.454 343.651,124.427 351.067 C 124.209 352.643,123.982 357.253,123.924 361.309 L 123.818 368.685 124.935 370.374 C 126.470 372.692,128.544 373.580,132.456 373.591 C 137.535 373.606,137.597 373.474,138.377 361.144 C 140.604 325.907,139.881 329.200,145.399 329.200 C 150.894 329.200,151.361 329.042,152.889 326.662 C 154.665 323.895,154.832 319.755,153.200 318.922 C 152.246 318.435,119.715 318.211,117.359 318.675 M152.330 319.860 C 153.027 320.046,153.210 320.321,153.063 320.954 C 152.955 321.419,152.656 322.851,152.398 324.136 C 151.776 327.230,150.343 327.977,145.000 327.993 C 141.110 328.004,138.815 328.854,138.786 330.294 C 138.778 330.682,138.603 332.800,138.398 335.000 C 138.192 337.200,137.659 345.390,137.213 353.200 C 136.107 372.582,136.198 372.282,131.560 371.851 C 125.020 371.243,123.769 367.984,125.552 356.200 C 125.785 354.660,126.166 348.990,126.400 343.600 C 126.633 338.210,126.929 332.881,127.057 331.758 C 127.437 328.432,126.685 328.000,120.515 328.000 C 115.643 328.000,115.575 327.987,115.207 327.018 C 114.547 325.282,115.169 322.244,116.470 320.853 L 117.641 319.600 134.520 319.605 C 143.804 319.608,151.818 319.723,152.330 319.860 M218.148 330.436 C 213.060 331.030,204.400 336.394,204.400 338.953 C 204.400 339.207,203.950 340.077,203.400 340.886 C 202.850 341.695,202.400 342.558,202.400 342.804 C 202.400 343.049,201.910 344.273,201.310 345.525 C 200.254 347.731,200.220 348.013,200.210 354.800 L 200.200 361.800 201.394 364.000 C 204.965 370.577,210.424 373.600,218.728 373.600 C 227.403 373.600,232.854 370.185,233.137 364.574 C 233.434 358.696,228.759 356.443,224.131 360.235 C 220.080 363.555,213.819 361.222,214.680 356.713 C 214.890 355.617,216.431 355.200,220.276 355.200 C 221.246 355.200,222.526 354.952,223.120 354.649 C 223.714 354.345,225.184 353.889,226.388 353.634 C 235.685 351.665,240.037 341.165,234.393 334.318 C 231.449 330.747,226.213 329.496,218.148 330.436 M255.094 330.449 C 244.773 331.778,238.976 340.757,244.626 346.663 C 246.981 349.125,252.943 348.281,254.171 345.312 C 256.248 340.290,262.400 340.505,262.400 345.599 C 262.400 348.555,262.538 348.484,256.156 348.816 C 251.610 349.053,250.710 349.213,249.778 349.946 C 249.181 350.416,248.473 350.800,248.206 350.800 C 245.852 350.800,241.476 354.584,239.953 357.937 C 234.441 370.067,248.983 378.987,259.841 370.138 C 261.450 368.827,262.400 368.458,262.400 369.145 C 262.400 370.771,267.104 373.600,269.805 373.600 C 277.396 373.600,282.205 365.390,277.112 361.126 L 275.126 359.463 275.312 356.032 C 275.415 354.144,275.720 350.890,275.991 348.800 C 277.833 334.551,270.853 328.421,255.094 330.449 M228.439 332.245 C 228.747 332.490,229.513 332.813,230.141 332.963 C 231.547 333.299,234.800 336.522,234.800 337.579 C 234.800 338.004,234.964 338.454,235.165 338.578 C 237.812 340.215,233.444 349.818,229.506 351.018 C 229.008 351.170,228.330 351.530,228.000 351.817 C 227.411 352.330,222.940 353.265,217.400 354.032 C 212.455 354.718,211.792 355.653,213.657 359.316 C 216.042 363.999,221.273 364.984,225.181 361.486 C 227.840 359.105,230.870 359.648,232.048 362.716 C 235.426 371.511,213.567 375.472,205.603 367.509 C 197.854 359.760,201.045 340.425,211.041 334.556 C 215.616 331.871,226.194 330.465,228.439 332.245 M267.164 332.500 C 269.871 333.450,273.406 336.458,273.819 338.162 C 274.372 340.447,274.601 344.548,274.347 347.600 C 274.191 349.470,274.049 353.147,274.032 355.772 L 274.000 360.544 275.826 362.245 C 278.037 364.303,278.189 365.453,276.606 368.154 C 273.565 373.342,266.556 373.171,263.052 367.823 C 262.168 366.475,262.141 366.481,259.001 368.799 C 251.763 374.142,241.437 372.235,240.582 365.397 C 239.426 356.143,245.972 350.435,258.642 349.650 C 263.474 349.351,263.604 349.255,263.554 346.000 C 263.489 341.791,262.339 340.485,258.647 340.429 C 255.895 340.388,254.261 341.505,252.779 344.442 L 251.588 346.800 249.269 346.800 C 243.912 346.800,242.253 340.559,246.425 336.100 C 250.238 332.023,260.655 330.215,267.164 332.500 M217.000 341.155 C 214.851 342.500,213.200 345.396,213.200 347.819 C 213.200 350.777,222.456 349.030,223.930 345.793 C 225.639 342.043,220.777 338.789,217.000 341.155 M222.329 343.321 C 223.183 345.110,221.619 346.863,218.604 347.496 C 215.067 348.237,214.216 347.551,215.451 344.950 C 216.932 341.829,221.141 340.832,222.329 343.321 M257.400 354.775 C 252.121 355.680,249.773 360.036,253.091 362.771 C 255.872 365.063,259.223 363.692,261.935 359.153 C 264.148 355.449,262.537 353.894,257.400 354.775 M260.788 356.567 C 261.712 358.999,258.702 362.121,255.628 361.918 C 252.311 361.700,252.634 358.323,256.134 356.629 C 258.851 355.314,260.304 355.295,260.788 356.567 " stroke="none" fill="#8eb15c" fill-rule="evenodd"></path></g></svg>